<svg xmlns="http://www.w3.org/2000/svg" width="68.25" height="63.195" viewBox="0 0 68.25 63.195">
  <g id="Group_123" data-name="Group 123" transform="translate(-478.748 -865.303)">
    <path id="Path_179" data-name="Path 179" d="M527.147,877a1.163,1.163,0,0,0-.209-.317l-.068-.071a1.8,1.8,0,0,0-1.758-.519,1.839,1.839,0,0,0-1.323,1.321,3.1,3.1,0,0,1-4.022,2.138,3.457,3.457,0,0,1-2.2-2.924.642.642,0,0,1,.007-.226,3.387,3.387,0,0,1,2.645-2.825,1.829,1.829,0,0,0,1.41-1.221,1.788,1.788,0,0,0-.392-1.777l-4.4-4.719a1.828,1.828,0,0,0-.913-.526,1.22,1.22,0,0,0-.28-.027,1.814,1.814,0,0,0-1.18.469l-4.195,3.822a5.23,5.23,0,0,0-1.007-1.546,5.378,5.378,0,0,0-7.484-.321,5.34,5.34,0,0,0,1.2,8.587l-4.141,3.865a1.324,1.324,0,0,0-.2.241,1.8,1.8,0,0,0-.367.909,1.131,1.131,0,0,0,.007.28,1.788,1.788,0,0,0,.453.95l4.342,4.769a1.787,1.787,0,0,0,1.74.537,1.829,1.829,0,0,0,1.332-1.307,3.386,3.386,0,0,1,3.025-2.41.687.687,0,0,1,.226.011,3.464,3.464,0,0,1,2.742,2.428,3.1,3.1,0,0,1-2.455,3.836,1.835,1.835,0,0,0-1.424,1.21,1.8,1.8,0,0,0,.374,1.8l.064.071a1.132,1.132,0,0,0,.3.233l4.161,4.457a1.8,1.8,0,0,0,1.107.562.864.864,0,0,0,.135.009,1.112,1.112,0,0,0,.155-.011,1.747,1.747,0,0,0,.59-.2,1.8,1.8,0,0,0,.372-.257l4.546-4.143a1.13,1.13,0,0,0,.151-.168,1.836,1.836,0,0,0,.271-1.6,1.751,1.751,0,0,0-1.07-1.15,3.1,3.1,0,0,1-1.984-3.105,3.072,3.072,0,0,1,1.112-2.173c.028-.025.055-.05.082-.077a3.178,3.178,0,0,1,2.257-.934,3.1,3.1,0,0,1,2.934,2.232,1.762,1.762,0,0,0,1.061,1.16,1.835,1.835,0,0,0,1.611-.146,1.1,1.1,0,0,0,.18-.136l4.5-4.2a1.815,1.815,0,0,0,.524-.907,1.127,1.127,0,0,0,.03-.3,1.8,1.8,0,0,0-.47-1.152Zm-1.422,8.881a5.559,5.559,0,1,0-7.76,7.156l-3.54,3.227-3.574-3.829a5.343,5.343,0,0,0,3.457-6.409,5.709,5.709,0,0,0-4.4-4.048,2.9,2.9,0,0,0-1.039-.048,5.685,5.685,0,0,0-4.642,3.333l-3.465-3.8,4.111-3.836a1.769,1.769,0,0,0,.414-.574,1.813,1.813,0,0,0,.139-1.462,1.766,1.766,0,0,0-1.055-1.1,3.03,3.03,0,0,1-1.185-.806,3.075,3.075,0,0,1,.118-4.3,3.12,3.12,0,0,1,4.326.2,3.051,3.051,0,0,1,.706,1.244,1.765,1.765,0,0,0,1.016,1.143,2.085,2.085,0,0,0,2.066-.378l4.164-3.794,3.51,3.761a5.681,5.681,0,0,0-3.7,4.359,2.9,2.9,0,0,0-.037,1.039,5.7,5.7,0,0,0,3.679,4.712,5.336,5.336,0,0,0,6.667-2.925l3.528,3.872Z" transform="translate(15.274)" fill="#272525"/>
    <path id="Path_180" data-name="Path 180" d="M485.955,922.4a1.816,1.816,0,0,0,1.813,1.8h.009l20.859-.123a1.236,1.236,0,0,0,.16-.021,1.824,1.824,0,0,0,.711.144l6.471-.039a1.039,1.039,0,0,0,.223-.023,1.828,1.828,0,0,0,1.266-.995,1.78,1.78,0,0,0-.021-1.586,3.379,3.379,0,0,1,.4-3.592.647.647,0,0,1,.159-.16,3.853,3.853,0,0,1,2.205-.752,3.109,3.109,0,0,1,3.1,3.084,3.033,3.033,0,0,1-.324,1.394,1.765,1.765,0,0,0-.005,1.574,1.837,1.837,0,0,0,1.282.986,1.026,1.026,0,0,0,.225.021l6.145-.037a1.811,1.811,0,0,0,1.806-1.822l-.037-6.423a1.792,1.792,0,0,0-1.811-1.8,1.844,1.844,0,0,0-1,.294,3.1,3.1,0,0,1-4.41-1.162,3.466,3.466,0,0,1,.373-3.635.634.634,0,0,1,.157-.159,3.87,3.87,0,0,1,2.214-.758,3.085,3.085,0,0,1,1.645.474,1.867,1.867,0,0,0,2.266-.244,1.775,1.775,0,0,0,.515-1.269l-.039-6.45a1.818,1.818,0,0,0-1.822-1.8l-5.517.032a5.281,5.281,0,0,0,.287-1.761,5.356,5.356,0,0,0-5.343-5.31,6.116,6.116,0,0,0-3.451,1.13,5.436,5.436,0,0,0,.453-.713,5.7,5.7,0,0,0-.552-5.942,2.863,2.863,0,0,0-.738-.734,5.835,5.835,0,0,0-5.243-.818l-.032-5.519a1.821,1.821,0,0,0-1.824-1.8l-5.532.034a5.725,5.725,0,0,0-.866-5.277,2.878,2.878,0,0,0-.736-.725,6.144,6.144,0,0,0-3.431-1.114h-.007a5.344,5.344,0,0,0-5.346,5.375,5.424,5.424,0,0,0,.326,1.8l-5.533.032a1.811,1.811,0,0,0-1.8,1.822l.037,6.471a1.293,1.293,0,0,0,.023.221,1.817,1.817,0,0,0,1.767,1.444,1.765,1.765,0,0,0,.815-.2,3.46,3.46,0,0,1,3.594.4.668.668,0,0,1,.159.159,3.461,3.461,0,0,1,.406,3.631,3.1,3.1,0,0,1-2.756,1.676,3.048,3.048,0,0,1-1.382-.328,1.75,1.75,0,0,0-.784-.185,1.811,1.811,0,0,0-1.768,1.467,1.166,1.166,0,0,0-.021.223l.036,6.148a1.083,1.083,0,0,0,.116.474c0,.027-.011.053-.011.08l.032,5.286a5.724,5.724,0,0,0-5.277.866,2.85,2.85,0,0,0-.725.736,5.7,5.7,0,0,0-.488,5.954,5.34,5.34,0,0,0,4.749,2.831,5.408,5.408,0,0,0,1.8-.326Zm31.13-21.618a1.786,1.786,0,0,0,.064-1.752,3.381,3.381,0,0,1,.4-3.59.669.669,0,0,1,.157-.16,3.854,3.854,0,0,1,2.207-.752A3.1,3.1,0,0,1,522.691,899a1.764,1.764,0,0,0,.078,1.731,1.814,1.814,0,0,0,1.562.866l5.738-.034.032,5.268a5.783,5.783,0,0,0-5.671.692,2.821,2.821,0,0,0-.734.742,5.707,5.707,0,0,0-.5,5.945,5.342,5.342,0,0,0,6.961,2.351l.03,5.268-4.92.029a5.342,5.342,0,0,0-5.061-7.054,6.14,6.14,0,0,0-3.483,1.152,2.918,2.918,0,0,0-.733.738,5.741,5.741,0,0,0-.827,5.227l-5.239.029-.036-5.76a1.815,1.815,0,0,0-1.806-1.808,1.775,1.775,0,0,0-.825.205,3.1,3.1,0,0,1-4.184-1.294,3.46,3.46,0,0,1,.369-3.628.593.593,0,0,1,.153-.159,3.469,3.469,0,0,1,3.617-.433,1.829,1.829,0,0,0,2.1-.337,1.8,1.8,0,0,0,.526-1.289l-.034-5.761,5.742-.036A1.8,1.8,0,0,0,517.085,900.779Zm-2.209-1.365-4.408.025-.025-4.145a5.338,5.338,0,0,0,5.157-.961A5.7,5.7,0,0,0,514.876,899.413Zm-25.2-3.537a5.333,5.333,0,0,0,4.712-2.884,5.7,5.7,0,0,0-.553-5.943,2.942,2.942,0,0,0-.738-.733,5.827,5.827,0,0,0-5.223-.827l-.032-5.239,5.762-.034a1.817,1.817,0,0,0,1.553-.888,1.772,1.772,0,0,0,.05-1.745,3.1,3.1,0,0,1,2.747-4.54h0a3.862,3.862,0,0,1,2.171.724.631.631,0,0,1,.159.157,3.464,3.464,0,0,1,.43,3.621,1.785,1.785,0,0,0,.071,1.754,1.806,1.806,0,0,0,1.556.866l5.763-.036.034,5.74a1.8,1.8,0,0,0,2.626,1.606,3.448,3.448,0,0,1,3.59.4.611.611,0,0,1,.159.159,3.453,3.453,0,0,1,.406,3.631,3.1,3.1,0,0,1-2.754,1.674,3.054,3.054,0,0,1-1.369-.319,1.806,1.806,0,0,0-2.6,1.637l.03,5.234a1.9,1.9,0,0,0-.3.328v0h0c-.041.057-.077.118-.11.176l-5.512.034a.664.664,0,0,1-.594-.341.71.71,0,0,1,.029-.72,4.521,4.521,0,0,0-.317-5.107,1.827,1.827,0,0,0-.442-.433,4.962,4.962,0,0,0-2.815-.927,4.217,4.217,0,0,0-3.556,6.5.724.724,0,0,1,.032.727.682.682,0,0,1-.594.355l-6.081.036-.027-4.92A5.306,5.306,0,0,0,489.679,895.876Zm-5.573,19.067a3.154,3.154,0,0,1-2.758-1.644,3.464,3.464,0,0,1,.369-3.64.556.556,0,0,1,.15-.153,3.461,3.461,0,0,1,3.621-.431,1.805,1.805,0,0,0,2.621-1.628l-.029-4.69,5.977-.036a2.932,2.932,0,0,0,2.553-1.528,2.961,2.961,0,0,0-.118-3.009,1.968,1.968,0,0,1,.266-2.456,2.227,2.227,0,0,1,2.879-.1,2.306,2.306,0,0,1,.2,2.54,2.921,2.921,0,0,0,2.469,4.5l5.259-.03.025,4.161a5.832,5.832,0,0,0-5.278.865,2.881,2.881,0,0,0-.726.736,5.711,5.711,0,0,0-.494,5.942,5.344,5.344,0,0,0,6.557,2.517l.029,4.81a1.367,1.367,0,0,0-.123.164l-19.361.114-.036-5.761a1.806,1.806,0,0,0-.888-1.551,1.764,1.764,0,0,0-1.743-.05A3.065,3.065,0,0,1,484.106,914.943Z" transform="translate(0 4.302)" fill="#272525"/>
  </g>
</svg>
