<svg xmlns="http://www.w3.org/2000/svg" width="69.856" height="64.294" viewBox="0 0 69.856 64.294"><path d="M-438.15,723.2a.558.558,0,0,1-.3-.3.549.549,0,0,1-.043-.21.549.549,0,0,0,.043.21.558.558,0,0,0,.3.3l6.719,2.717a.558.558,0,0,0,.21.041.558.558,0,0,1-.21-.041Z" transform="translate(490.558 -719.365)" fill="#fff"/><path d="M-586.311,766.115h.95v-5.191a2.18,2.18,0,0,1,2.178-2.177h42.09l.224-.554.678-1.677h-42.992a4.415,4.415,0,0,0-4.41,4.409v6.861a1.109,1.109,0,0,1,.169-.583A1.114,1.114,0,0,1-586.311,766.115Z" transform="translate(587.593 -741.379)" fill="#fff"/><path d="M-418.551,754.927h-8.966l-.9,2.232h9.869a2.179,2.179,0,0,1,2.176,2.178v5.745h1.116a1.115,1.115,0,0,1,1.115,1.116v-6.86A4.414,4.414,0,0,0-418.551,754.927Z" transform="translate(483.999 -740.346)" fill="#fff"/><path d="M-518.854,743.707H-535.22l3.205-7.923.9-2.232,3.372-8.336a.556.556,0,0,1-.3.3.55.55,0,0,1-.217.045.555.555,0,0,1-.21-.042l-6.719-2.717a.559.559,0,0,1-.3-.3.548.548,0,0,1-.043-.209.56.56,0,0,1,.039-.211l-4.638,11.468-.225.555-.678,1.677-.224.555-2.981,7.368h-42.237a1.114,1.114,0,0,0-1.112,1.087c0,.01,0,.019,0,.029v34.033a4.414,4.414,0,0,0,4.409,4.409h61.038a4.413,4.413,0,0,0,4.407-4.409V744.823A1.115,1.115,0,0,0-518.854,743.707Zm-1.115,35.149a2.179,2.179,0,0,1-2.176,2.177h-61.038a2.18,2.18,0,0,1-2.177-2.177V745.939h40.218l-4.711,11.645c-.016.04-.026.081-.041.122l1.035.419h0c.014-.042.024-.083.041-.123l14.152-34.986,5.684,2.3L-543.136,760.3c-.016.041-.044.074-.063.114l1.039.42h0c.017-.04.042-.074.058-.115l5.979-14.781h16.153Z" transform="translate(587.593 -718.971)" fill="#fff"/><path d="M-576.231,769.744a.619.619,0,0,0,.618.618h4.8a.619.619,0,0,0,.618-.618.618.618,0,0,0-.618-.617h-4.8A.618.618,0,0,0-576.231,769.744Z" transform="translate(580.198 -749.588)" fill="#fff"/><path d="M-414.212,770.362h4.8a.618.618,0,0,0,.617-.618.617.617,0,0,0-.617-.617h-4.8a.617.617,0,0,0-.617.617A.618.618,0,0,0-414.212,770.362Z" transform="translate(475.153 -749.588)" fill="#fff"/><path d="M-438.5,716.493a.551.551,0,0,0,.043.209.558.558,0,0,0,.3.3l6.719,2.717a.555.555,0,0,0,.21.042.55.55,0,0,0,.217-.045.556.556,0,0,0,.3-.3v0l.41-1.013c.736-1.824-.4-4.012-2.538-4.875a4.567,4.567,0,0,0-3.085-.159,3.31,3.31,0,0,0-2.13,1.9l-.411,1.015a0,0,0,0,0,0,0v0A.562.562,0,0,0-438.5,716.493Zm1.484-.813a2.213,2.213,0,0,1,1.434-1.252,3.451,3.451,0,0,1,2.328.13c1.566.633,2.428,2.169,1.922,3.423l-.2.5-5.685-2.3Z" transform="translate(490.558 -713.167)" fill="#fff"/><path d="M-481.847,832.76l.344.16c.075.035.156.073.235.108l-.345,2.9a.173.173,0,0,0,.313.12l1.627-2.312.183.08.377.163,5.939-6.884-.164-.067h0l-1.039-.42-5.661-2.29h0l-1.035-.419-.263-.107Zm2.427-.128c-.448-.2-.878-.388-1.27-.566l.38-6.65,5.274,2.134Z" transform="translate(518.771 -785.168)" fill="#fff"/></svg>