<svg xmlns="http://www.w3.org/2000/svg" width="59.262" height="59.729" viewBox="0 0 59.262 59.729"><g transform="translate(-1125.247 -473.076)"><path d="M1177.128,499.938a1.244,1.244,0,0,0,.216-.392l6.8-20.4a4.2,4.2,0,0,0,.266-.823c.006-.023.012-.047.016-.07a4.318,4.318,0,0,0-5.2-5.068,1.209,1.209,0,0,0-.139.029,4.609,4.609,0,0,0-.543.183l-19.832,6.534a4.9,4.9,0,0,0-2.455,1.293l-14.41,14.411-11.752-1.87a.872.872,0,0,0-.251,0,3.976,3.976,0,0,0-3.424,1.129,4.03,4.03,0,0,0-.065,5.623,1.034,1.034,0,0,0,.087.1l5.21,5.209-1.428,1.427a5.116,5.116,0,0,0,.005,7.226l1.693,1.694-.173.339a1.249,1.249,0,0,0,.229,1.452l7.441,7.44a1.248,1.248,0,0,0,1.449.229l.342-.174,1.761,1.762a5.08,5.08,0,0,0,3.612,1.5h0a5.07,5.07,0,0,0,3.61-1.5l1.131-1.131,5.271,5.272a.767.767,0,0,0,.145.116c.042.051.086.1.133.149a3.992,3.992,0,0,0,2.839,1.175h0a4.023,4.023,0,0,0,3.843-5.2.848.848,0,0,0-.009-.151l-1.859-11.731,14.533-14.533A4.891,4.891,0,0,0,1177.128,499.938Zm-49.376-.366a.9.9,0,0,0-.1-.123.847.847,0,0,0-.105-.093,2.361,2.361,0,0,1,.049-3.287,2.32,2.32,0,0,1,2.174-.626.8.8,0,0,0,.33.008l10.291,1.637-7.563,7.561Zm34.105,27.828a.835.835,0,0,0,.041.493,2.355,2.355,0,0,1-2.181,3.247h0a2.331,2.331,0,0,1-1.66-.685.8.8,0,0,1-.088-.111l-.091-.118a.816.816,0,0,0-.31-.245l-4.965-4.965,7.664-7.664Zm13.131-28.779a2.545,2.545,0,0,1-.528.807l-26.032,26.03a2.584,2.584,0,0,1-1.843.765h0a2.609,2.609,0,0,1-.76-.112,2.572,2.572,0,0,1-1.087-.655l-2.4-2.4a1.245,1.245,0,0,0-1.45-.229l-.342.174-6.156-6.157.173-.339a1.249,1.249,0,0,0-.228-1.453L1132,512.717a2.617,2.617,0,0,1-.005-3.695l26.031-26.031a2.509,2.509,0,0,1,1.292-.636,1.11,1.11,0,0,0,.122-.033l19.933-6.568c.031-.011.062-.021.091-.035.076-.03.15-.056.226-.079l.066-.014a1.821,1.821,0,0,1,2.229,2.1c0,.014-.006.028-.01.042a1.853,1.853,0,0,1-.131.406c-.018.041-.035.083-.05.125l-6.721,20.166A1.459,1.459,0,0,0,1174.99,498.621Z" transform="translate(0 0)" fill="#fff"/><path d="M1158.45,518.6a4.512,4.512,0,0,0-3.211-1.329h0a4.507,4.507,0,0,0-3.209,1.328l-5.561,5.562a4.547,4.547,0,0,0,0,6.421l2.626,2.623a4.5,4.5,0,0,0,3.209,1.329h0a4.508,4.508,0,0,0,3.205-1.329l5.561-5.56a4.537,4.537,0,0,0,0-6.418Zm.86,7.278-5.561,5.56h0a2.024,2.024,0,0,1-1.443.6h0a2.033,2.033,0,0,1-1.446-.6l-2.624-2.623a2.046,2.046,0,0,1,0-2.889l5.561-5.562a2.023,2.023,0,0,1,1.443-.6h0a2.036,2.036,0,0,1,1.446.6l2.625,2.625a2.042,2.042,0,0,1,0,2.887Z" transform="translate(-6.899 -15.326)" fill="#fff"/><path d="M1180.892,497.383a7.128,7.128,0,0,0-3.375-.842h0a7.171,7.171,0,0,0,0,14.342h0a7.175,7.175,0,0,0,3.377-13.5Zm-.071,9.631a4.656,4.656,0,0,1-3.306,1.371h0a4.674,4.674,0,0,1,0-9.348h0a4.672,4.672,0,0,1,3.3,7.977Z" transform="translate(-15.638 -8.137)" fill="#fff"/></g></svg>