<svg id="Group_117" data-name="Group 117" xmlns="http://www.w3.org/2000/svg" width="32.798" height="32.798" viewBox="0 0 32.798 32.798">
  <path id="Path_167" data-name="Path 167" d="M1193.019,445.616h-3.214V442.4a.737.737,0,0,0-.718-.714h-.713a.718.718,0,0,0-.713.714v3.214h-3.214a.722.722,0,0,0-.718.715v.714a.708.708,0,0,0,.718.715h3.214v3.214a.7.7,0,0,0,.713.714h.713a.722.722,0,0,0,.718-.714v-3.214h3.214a.718.718,0,0,0,.713-.715v-.714A.734.734,0,0,0,1193.019,445.616Z" transform="translate(-1172.332 -430.289)" fill="#151515"/>
  <path id="Rectangle_237" data-name="Rectangle 237" d="M11.4-5A16.4,16.4,0,1,1-5,11.4,16.418,16.418,0,0,1,11.4-5Zm0,30.473A14.074,14.074,0,1,0-2.675,11.4,14.09,14.09,0,0,0,11.4,25.473Z" transform="translate(5 5)" fill="#151515"/>
</svg>
