<svg xmlns="http://www.w3.org/2000/svg" width="55.527" height="55.528" viewBox="0 0 55.527 55.528">
  <g id="Group_1816" data-name="Group 1816" transform="translate(-970.393 439.875)">
    <path id="Path_4443" data-name="Path 4443" d="M1104.612-432.5c-.1,1.074-.2,2.15-.317,3.223a37.578,37.578,0,0,1-10.016,22.26,45.107,45.107,0,0,1-11.728,9.165c-.095.05-.191.1-.251.13l-19.885-19.9c.878-1.4,1.741-2.926,2.74-4.353a43.712,43.712,0,0,1,13.508-12.721,36.256,36.256,0,0,1,11.144-4.192,46.874,46.874,0,0,1,10.983-.975c.433.011.867.036,1.3.084a2.808,2.808,0,0,1,2.421,2.357c.029.194.068.386.1.579Zm-25.607,10.1a8.088,8.088,0,0,0,8.109,8.13,8.124,8.124,0,0,0,8.151-8.107,8.155,8.155,0,0,0-8.127-8.147A8.124,8.124,0,0,0,1079.005-422.4Z" transform="translate(-78.692)" fill="#131313"/>
    <path id="Path_4444" data-name="Path 4444" d="M1143.2-139.841a3.027,3.027,0,0,1-2.316-2.256c-.3-1.52-.505-3.059-.762-4.658a39.99,39.99,0,0,0,15.945-7.2c-.062.781-.114,1.438-.165,2.1-.072.918-.137,1.837-.218,2.754a4.12,4.12,0,0,1-1.885,3.2q-4.184,2.8-8.4,5.552a8.082,8.082,0,0,1-1.115.515Z" transform="translate(-145.141 -244.506)" fill="#131313"/>
    <path id="Path_4445" data-name="Path 4445" d="M971.678-135.914c-.087-.055-.171-.115-.262-.164a1.613,1.613,0,0,1-.463-2.6c.364-.4.761-.77,1.144-1.153q4.479-4.481,8.96-8.959a1.629,1.629,0,0,1,2.83.63,1.744,1.744,0,0,1-.6,1.749q-3.837,3.82-7.66,7.656c-.587.587-1.16,1.19-1.766,1.756-.415.387-.877.724-1.317,1.083Z" transform="translate(-0.079 -248.434)" fill="#131313"/>
    <path id="Path_4446" data-name="Path 4446" d="M1039.237-107.275c-.1-.041-.195-.084-.294-.121a1.6,1.6,0,0,1-.655-2.647c1.765-1.812,3.559-3.595,5.362-5.369a1.607,1.607,0,0,1,2.254,0,1.574,1.574,0,0,1,.06,2.246q-2.669,2.734-5.4,5.4a3.681,3.681,0,0,1-.889.484Z" transform="translate(-57.663 -277.072)" fill="#131313"/>
    <path id="Path_4447" data-name="Path 4447" d="M1059.166-244.583a29.8,29.8,0,0,1-6.587,1.831,2.588,2.588,0,0,1-2.28-.774q-5.108-5.086-10.191-10.2a2.626,2.626,0,0,1-.726-2.546c.323-1.405.655-2.809,1.031-4.2.2-.744.5-1.461.74-2.13Z" transform="translate(-58.929 -151.596)" fill="#131313"/>
    <path id="Path_4448" data-name="Path 4448" d="M984.521-336.344a44.7,44.7,0,0,0-4.5,7.6,36.871,36.871,0,0,0-2.7,8.334c-.843-.124-1.675-.242-2.5-.368-.624-.095-1.247-.2-1.871-.3a2.932,2.932,0,0,1-2.1-4.462c1.862-2.923,3.793-5.8,5.733-8.675a3.943,3.943,0,0,1,3.052-1.736C981.219-336.089,982.8-336.206,984.521-336.344Z" transform="translate(0 -88.535)" fill="#131313"/>
    <path id="Path_4449" data-name="Path 4449" d="M979.278-181.258a3.484,3.484,0,0,1-.53.949c-1.723,1.771-3.475,3.513-5.233,5.25a1.6,1.6,0,0,1-2.326.024,1.608,1.608,0,0,1,.044-2.327q2.607-2.634,5.24-5.243a1.552,1.552,0,0,1,1.837-.358A1.7,1.7,0,0,1,979.278-181.258Z" transform="translate(-0.274 -219.565)" fill="#131313"/>
    <path id="Path_4450" data-name="Path 4450" d="M1199.424-347.991a4.874,4.874,0,0,1,4.886-4.835,4.907,4.907,0,0,1,4.864,4.927,4.875,4.875,0,0,1-4.956,4.82A4.844,4.844,0,0,1,1199.424-347.991Z" transform="translate(-195.857 -74.44)" fill="#131313"/>
  </g>
</svg>
