<svg xmlns="http://www.w3.org/2000/svg" width="64.763" height="49.098" viewBox="0 0 64.763 49.098">
  <g id="Group_1814" data-name="Group 1814" transform="translate(-348 -394.442)">
    <path id="Path_4435" data-name="Path 4435" d="M412.763,654.925c-.295,0-.589.009-.884.009h-63c-.295,0-.589-.006-.884-.009V654.8a4.575,4.575,0,0,0,.414-.441c1.257-1.742,2.5-3.5,3.775-5.223a1.083,1.083,0,0,1,.757-.386q27.436-.027,54.872-.026a.891.891,0,0,1,.815.448c1.228,1.737,2.474,3.461,3.719,5.186a4.694,4.694,0,0,0,.412.443Z" transform="translate(0 -211.395)" fill="#131313"/>
    <path id="Path_4436" data-name="Path 4436" d="M378.422,434.342v-.717q0-18.114,0-36.229c0-1.983.971-2.954,2.941-2.954h48.621c1.967,0,2.937.973,2.937,2.959q0,18.114,0,36.229v.712ZM422.5,411.373c.012.142.028.244.028.346,0,1.433-.023,2.867.018,4.3a2.453,2.453,0,0,0,.347,1.177,1.38,1.38,0,0,0,1.635.483,1.531,1.531,0,0,0,.986-1.544c.009-2.487,0-4.975,0-7.462,0-2.093-.534-2.858-2.5-3.573-5.241-1.9-10.49-3.782-15.718-5.72a4.522,4.522,0,0,0-3.356-.005c-5.324,1.981-10.673,3.892-16.012,5.834a2.958,2.958,0,0,0-2.091,2.857,3.083,3.083,0,0,0,2.056,2.836c.531.2,1.054.432,1.6.592a.655.655,0,0,1,.533.766c-.022,2.445-.011,4.89-.01,7.335a3.8,3.8,0,0,0,3.264,4.082,21.1,21.1,0,0,1,9.7,5.037,3.718,3.718,0,0,0,5.242.024,22.155,22.155,0,0,1,10-5.131,3.555,3.555,0,0,0,3.115-3.95q0-3.478,0-6.956C421.335,411.62,421.335,411.62,422.5,411.373Z" transform="translate(-25.291)" fill="#131313"/>
    <path id="Path_4437" data-name="Path 4437" d="M441.2,444.951c2.042-.744,4.011-1.464,5.981-2.18q5.07-1.842,10.146-3.67a1.439,1.439,0,0,1,.9-.056q8.054,2.959,16.092,5.963a2.139,2.139,0,0,1,.19.106c-.272.109-.487.2-.708.282q-7.681,2.788-15.367,5.559a1.612,1.612,0,0,1-1.014.026q-7.941-2.9-15.864-5.855C441.454,445.09,441.365,445.035,441.2,444.951Z" transform="translate(-77.477 -37.039)" fill="#131313"/>
    <path id="Path_4438" data-name="Path 4438" d="M464.875,503.262c1.246.444,2.431.863,3.613,1.288,2.494.9,5,1.777,7.475,2.713a4.18,4.18,0,0,0,3.015,0l10.451-3.765c.194-.07.391-.13.654-.217v4.734c0,.78-.014,1.56,0,2.34a.8.8,0,0,1-.733.911,24.131,24.131,0,0,0-10.042,4.82c-.441.359-.859.746-1.282,1.127a.73.73,0,0,1-1.117-.011,24.112,24.112,0,0,0-11.263-5.939c-.427-.1-.768-.3-.77-.783C464.869,508.1,464.875,505.72,464.875,503.262Z" transform="translate(-97.162 -90.467)" fill="#131313"/>
  </g>
</svg>
