<svg xmlns="http://www.w3.org/2000/svg" width="430.101" height="320.446" viewBox="0 0 430.101 320.446">
  <g id="Group_1941" data-name="Group 1941" transform="translate(-434.82 -494.056)" opacity="0.15">
    <path id="Path_453" data-name="Path 453" d="M860.633,563.232c-3.209-2.19-8.994-2.284-11.884.647a1.061,1.061,0,0,0-.738.384c-1.741-.809-3.531-.261-5.434-.186-1.824.072-3.649.059-5.473-.014a20.538,20.538,0,0,0-9.5-15.314,30.169,30.169,0,0,0-11.708-4.332c0-.008,0-.013,0-.022-.222-1.935-.484-3.854-.788-5.779-.124-.783-.164-1.623-.333-2.392a9.813,9.813,0,0,0,3.238-3.574c2.478-4.77.343-11.245-4.251-13.877-4.725-2.705-11.257-.873-14.235,3.59A11.054,11.054,0,0,0,802.178,537a1.525,1.525,0,0,0,.172.078c-.366,1.237.15,2.814.391,4.039a27.81,27.81,0,0,0,1.136,4.25,14.189,14.189,0,0,0-7.893,7.236,1.63,1.63,0,0,0-.537-.132,1.381,1.381,0,0,0-.891-.481c-6.742-.964-13.531-2.022-20.336-2.662-.547-11.9-19.723-18.731-29.554-18.153-13.683.8-23.577,14.05-23.245,27.2a28.289,28.289,0,0,0,.633,5.267,4.62,4.62,0,0,0-2.137.7,5.737,5.737,0,0,0-1.011.762c-4.878,2.578-9.3,6.4-14.045,9.25-4.938,2.967-10.123,5.473-15.119,8.331a31.211,31.211,0,0,0-10.291-4.43c.018-4.595.092-9.22-.1-13.815a12.416,12.416,0,0,0,7.732-15.111c-2.312-7.437-11.447-11.261-18.487-8.312-6.784,2.843-11.2,11.49-7.444,18.324a11.848,11.848,0,0,0,6.457,5.455c-.735,4.2-.121,8.92.618,13.228-10.416,1.938-19.77,9.67-22,20.344-2.762,13.193,5.471,27.336,19.262,28.191-.645,4.678-1.218,9.364-1.574,14.07a18.373,18.373,0,0,0-8.989,3.672c-12.343,1.65-17.838,17.366-16.842,29.043-3.8.663-7.482,2.573-11,4.053-3.883,1.634-7.88,3.2-11.61,5.16-.174-.454-.343-.91-.537-1.36-5.333-12.444-15.095-16.077-27.789-13.727-1.938-7.254-4.986-14.71-7.6-21.29a1.321,1.321,0,0,0-.227-.369c.48-.33.97-.638,1.435-1,9.693-7.485,16.778-23.93,13.427-36.739a26.967,26.967,0,0,0,3.235-2.1c1.339-.9,3.379-1.91,4.424-3.343a15.849,15.849,0,0,0,5.841,1.413,17.789,17.789,0,0,0,18.489-18.971,18.489,18.489,0,0,0-19.895-16.963c-8.674.593-18.927,9.576-14.021,18.754a14.8,14.8,0,0,0,.047,3.088c-1.332.277-2.29,1.5-3.332,2.373-.912.766-1.8,1.554-2.688,2.342-9.426-10.87-29.154-9.639-41.262-2.832a140.82,140.82,0,0,1-10.8-11.365,2.694,2.694,0,0,0,.232-.384,32.108,32.108,0,0,0,1.233-25.478,86.4,86.4,0,0,0,9.593-6.168,78.084,78.084,0,0,0,8.24-7.676,1.368,1.368,0,0,0,.184-.274,16.406,16.406,0,0,0,16.373.668c7.681-4.478,10.012-14.958,4.659-22.084-5.694-7.577-16.812-8.023-24.108-2.357-4.758,3.7-5.35,9.238-3.673,14.307a1.6,1.6,0,0,0-.777.244c-6.033,3.771-11.5,8.816-17.156,13.211-5.291-5.218-13.832-10.285-20.644-8.249a90.232,90.232,0,0,0-4.7-11.386c7.9-3.7,8.284-14.931,4.312-21.908a17.884,17.884,0,0,0-24.3-6.532c-8.128,4.709-10.741,15.9-5.684,23.819a15.015,15.015,0,0,0,11.442,6.875c1.456,4.591,3.1,9.124,4.8,13.633-13.336,6.433-18.95,22.722-13.8,36.358-.02,0-.037,0-.056.007-3.06.86-5.774,3.239-8.453,4.913-2.566,1.6-5.086,3.274-7.6,4.96a18.14,18.14,0,0,0-16.61-3.162c-9.4,3.018-15.176,14.182-12.058,23.589,3.1,9.348,14.363,14.99,23.709,11.914,8.921-2.936,14.367-13.088,12.356-22.11,5.54-2,11.745-5,15.9-9.432,8.507,7.9,21.545,10.591,32.042,3.876a2.163,2.163,0,0,0,.783-.892c1.674,1.919,3.42,3.781,5.271,5.521,1.973,1.853,4.846,5.156,7.849,5.946-7.346,10.6-8.242,24.789-.184,36.232,7.679,10.9,21.16,15.166,33.537,12.624,1.6,6.271,3.486,12.846,5.653,19.186-18.98,3.532-23.845,25.155-18.4,41.313a1.985,1.985,0,0,0-1.614.437c-5.186,4.2-10.319,8.463-15.334,12.864-8.956-11.052-26.522-12.621-38.529-5.41a25.591,25.591,0,0,0-9.8,10.813,2.076,2.076,0,0,0-.628-.275,104.406,104.406,0,0,0-13.016-2.367c-.678-4.8-3.548-9.77-6.637-12.146a16.839,16.839,0,0,0-23.181,2.491c-5.306,6.548-3.69,16.333,2.85,21.421,6.227,4.846,15.392,3.652,20.794-1.713a1.086,1.086,0,0,0,.833.617c2.9.568,5.755,1.322,8.648,1.931,2.351.495,4.83,1.434,7.169.662a1.142,1.142,0,0,0,.3-.162,29.069,29.069,0,0,0,2.758,14.954c5.871,12.1,18.441,16.752,30.383,15.72.563,2.705,1.195,5.4,1.807,8.091.549,2.417.867,5.1,2.107,7.26a16.412,16.412,0,0,0-4.923,7.331c-2.658,8.413,3.142,18.079,11.716,20.046,8.936,2.051,17.953-4.982,20.3-13.4,2.388-8.58-3.031-17.519-11.786-18.293,0-.029,0-.054-.01-.084a46.934,46.934,0,0,0-6.252-14.5c11.1-5.445,18.316-16.6,12.722-31.331a2.176,2.176,0,0,0-.784-1.028q4.238-3.035,8.357-6.229c2.367-1.837,5.835-3.762,7.6-6.392,3.68,5.057,8.6,9.036,15.068,10.055,7.834,1.233,17.676.65,24-4.645a16.95,16.95,0,0,0-.076,9.793,15.913,15.913,0,0,0,21.217,10.263c8.432-3.327,12.049-13.409,8.761-21.651a18.372,18.372,0,0,0-15.5-10.95,42.533,42.533,0,0,0,4.528-17.663c.73-.3,1.137-1.078,1.677-1.7a7.363,7.363,0,0,1,1.566-1.322c2.554-.355,5.344-2.024,7.419-2.882a139.156,139.156,0,0,0,13.072-6.213,2.069,2.069,0,0,0,.67-.559c7.377,10.12,22.369,12.573,33.806,6.245.574-.317,1.121-.675,1.67-1.03a1.007,1.007,0,0,0,.2.252c3.174,2.659,6.368,5.3,9.744,7.7a62.643,62.643,0,0,0,8.07,5.367A21.23,21.23,0,0,0,706.066,732.6a142.683,142.683,0,0,0-.612,15.7,11.381,11.381,0,0,0-5.995,4.683,12.356,12.356,0,0,0,4.058,17c5.413,3.368,12.685,1.655,16.629-3.178,4.414-5.41,3.417-13.512-1.354-18.326a2.167,2.167,0,0,0-.693-.479q.542-6.566.505-13.151a21.351,21.351,0,0,0,10.046-3.554,27.074,27.074,0,0,0,9.97-13.068,1.655,1.655,0,0,0,.3,0c6.727-1.137,14.2-2.161,20.591-4.557a1.724,1.724,0,0,0,.58-.364c6.976,9.124,19.526,14.074,31.209,6.81a95.95,95.95,0,0,0,11.16,7.726,11.049,11.049,0,0,0,.279,4.6c1.712,6.09,8.567,9.745,14.636,8.5,6.548-1.346,10.723-8.071,9.938-14.558-.7-5.761-7.712-13.328-13.9-9.854-1.055-2-4.148-3.321-5.8-4.379-1.558-1-3.147-1.977-4.749-2.937a1.666,1.666,0,0,0,.64-.75,24.206,24.206,0,0,0,1.8-13.37c3.248-3.638,6.338-7.422,9.534-11.1,2.844-3.277,6.43-6.691,8.018-10.781,14.453,3.839,29.932,1.466,36.654-13.857,5.384-12.272-.54-27.155-12.308-33.217a22.972,22.972,0,0,0-3.878-1.555,1.314,1.314,0,0,0-.031-.514c-3.5-13.883-5.587-28.278-9.382-42.036a1.435,1.435,0,0,0-.855-.956,30.97,30.97,0,0,0,2.907-6.413c2.1.412,4.238.688,6.35,1.022.949.15,1.893.352,2.838.492a8.887,8.887,0,0,0,3.546,4.89,10.843,10.843,0,0,0,14.242-2.728C866.215,573.736,865.427,566.5,860.633,563.232ZM469.4,731.636c-.279.465-.516.95-.75,1.436a1.8,1.8,0,0,0-1.145.51c-3.728,3.62-8.551,5.966-13.816,4.147-5.859-2.026-9.042-9.572-6.219-15.078a12.14,12.14,0,0,1,16.032-5.2,12.5,12.5,0,0,1,6.332,6.6,38.1,38.1,0,0,1,.677,5.876A17.631,17.631,0,0,0,469.4,731.636Zm16.851,7.323-.006-.006c-1.958-1.555-4.364-1.579-6.793-1.94-2.118-.316-4.24-.573-6.36-.861a8.693,8.693,0,0,0,2.245-5.144,101.943,101.943,0,0,0,11.915,2.692,2.052,2.052,0,0,0,.253.017A29.421,29.421,0,0,0,486.256,738.959Zm111.967-162.15c2.35-2.635,6.192-3.8,9.625-3.752a13.2,13.2,0,0,1,13.1,12.8,12.718,12.718,0,0,1-12.48,13.052c-6.906.164-11.388-5.467-12.645-11.645a1.763,1.763,0,0,0,.2-.8C596.03,583.022,595.716,579.622,598.223,576.809Zm-7.105,18.3c.75-.441,1.549-.792,2.215-1.273a16.437,16.437,0,0,0,4.142,5.919c-1.1.773-2.129,1.779-3.034,2.452-.6.445-1.3.883-1.967,1.363a44.446,44.446,0,0,1-4.531-6.674C589.007,596.311,590.068,595.725,591.118,595.11Zm-38.782-74.337c4.877-4.744,13.7-5.032,18.318.071a10.832,10.832,0,0,1-1.871,15.966c-6.3,4.594-11.573.478-16.329-3.709a1.905,1.905,0,0,0-1.71-.408C549.125,528.639,548.9,524.115,552.335,520.773Zm-4.155,13.153A20.936,20.936,0,0,0,551.6,538.7c-.029.024-.06.029-.088.056a130.656,130.656,0,0,1-16.953,13.322,29.325,29.325,0,0,0-2.709-4.406c-.331-.444-.707-.9-1.1-1.358C536.965,543.14,543.652,539.137,548.18,533.926ZM482.155,517.8c-3.514-5.242-2.267-13.055,2.931-16.684a13.092,13.092,0,0,1,17.09,1.667c3.983,4.392,6.242,15.773-1.32,18.076-.014,0-.024.011-.038.016a1.649,1.649,0,0,0-1.238.5,1.325,1.325,0,0,0-.587.113C493.568,524,485.712,523.1,482.155,517.8ZM493.04,527a15.139,15.139,0,0,0,6.49-2.595,2.349,2.349,0,0,0,.6.719c2.238,6.55,4.262,13.152,6.155,19.813a2.113,2.113,0,0,0,.873,1.234,3.14,3.14,0,0,1-1.937,2.416,3.6,3.6,0,0,1-3.98-1.216,2.266,2.266,0,0,0-.126-.469C498.559,540.219,495.967,533.532,493.04,527Zm-34.731,88.428c-7.588,2.62-16.965-2.034-19.1-9.855-2.074-7.6,3.071-16.653,10.922-18.123,7.541-1.412,14.265,3.452,17.512,9.916C468.841,604.612,465.808,612.838,458.308,615.428Zm20.762-25.666a54.39,54.39,0,0,1-8.323,4.918,1.81,1.81,0,0,0-1.006-.493,16.794,16.794,0,0,0-3.436-5.433c2.482-1.2,4.933-2.46,7.307-3.873,2.607-1.554,5.851-3,7.883-5.3a27.924,27.924,0,0,0,3.4,5.259C482.956,586.477,481.131,588.262,479.07,589.762Zm37.959-7.431a1.531,1.531,0,0,0-.792,1.323,5.954,5.954,0,0,0,1.416,3.79c-13.234,5.463-28.052,1.2-32.69-13.446-3.721-11.747,2.146-22.379,10.394-30.317q.834,2.174,1.675,4.346a2.16,2.16,0,0,0,1.809,1.4,6.844,6.844,0,0,0,7.188,3.074c3.358-.736,6.2-4.74,5.144-8.163a1.8,1.8,0,0,0-.686-.911c-.318-1.321-.688-2.622-1.069-3.92,1.464.455,2.973.749,4.52,1.275a28.866,28.866,0,0,1,12.045,7.6c7.007,7.6,8.166,18.177,4.666,27.571q-.891-1.207-1.743-2.447a2.551,2.551,0,0,0-3.687-.549C520.136,572.352,515.627,577.551,517.029,582.331Zm14.241,12.893c-1.634-1.653-3.249-3.334-4.821-5.048-1.921-2.1-3.875-5.523-6.436-7.187a5.111,5.111,0,0,1,5.1-6.281c.025,0,.043-.011.067-.011A60.248,60.248,0,0,0,542.4,593.473a34.766,34.766,0,0,0-6.676,5.971C534.329,599.194,532.163,596.127,531.27,595.223Zm6.805,40.5c-9.373-12.92-4.757-30.206,8.492-38.393,10.138-6.265,27.035-7.887,36.453.535a1.788,1.788,0,0,0,.384,1.616c9.246,12.2,7.238,29.318-4.139,39.691C567.445,649.948,547.653,648.919,538.075,635.719ZM569.344,650.5a34.024,34.024,0,0,0,8.036-3.445c1.711,9.031,4.076,19.909,8.377,28.1-.02.071-.034.141-.058.213a4.265,4.265,0,0,1-1.812,2.331c-1.68,1.1-3.2.885-4.929.319A109.435,109.435,0,0,0,569.344,650.5ZM536.518,786.61c8.6-.4,12.226,8.94,8.525,15.84-3.2,5.962-10.737,10.076-17.123,6.4-5.432-3.129-7.917-10.232-4.649-15.766,2.52-4.267,7.1-6.223,11.78-7.009A1.847,1.847,0,0,0,536.518,786.61Zm-2.3-3.661a13.932,13.932,0,0,0-8.128,1.739,38.424,38.424,0,0,0-1.675-6.128c-.75-2.509-1.488-5.024-2.275-7.521a36.808,36.808,0,0,0,8.162-2.35C531.738,773.421,532.888,778.182,534.216,782.95ZM493,754.4c-5.469-10.561-2.518-24.862,7.936-31.119s25.079-4.429,34.063,3.59c-1.133,1.012-2.27,2.019-3.388,3.047a1.493,1.493,0,0,0,.639,2.415c.072,3.577,3.626,6.431,7.365,6.116a1.2,1.2,0,0,0,.13-.013c.132-.013.263-.016.4-.037a1.551,1.551,0,0,0,.755-.365C550.761,766.611,505.548,778.627,493,754.4Zm56.865-28.454c-3.295,2.778-6.533,5.637-9.671,8.593a2.8,2.8,0,0,0-1.146-.092c-1.877.257-3.764-1.488-4.388-3.262,7.067-5.243,13.92-10.769,20.674-16.407.025-.022.041-.044.065-.066a48.27,48.27,0,0,0,2.592,5.057C554.9,720.837,552.292,723.9,549.867,725.947Zm42.423-11.776a3.758,3.758,0,0,1,.99-3.524c1.258-1.189,2.529-.674,4.011-.68a38.968,38.968,0,0,1,3.734,3.953c1.024,1.281,2.1,3.613,3.643,4.5.251.3.505.608.752.916.171.215.334.447.495.682a12.8,12.8,0,0,0-4.883,4.282A70.41,70.41,0,0,0,592.29,714.171ZM624.257,726.4c3.557,5.846,1.866,14.253-4.313,17.576a11.761,11.761,0,0,1-16.831-7.011c-1.783-5.962,1.151-12.541,6.328-15.815a1.115,1.115,0,0,0,.539-1.015C615.57,720.011,621,721.05,624.257,726.4Zm-15.513-10.329a2.166,2.166,0,0,0-.113.25c-.351.106-.7.205-1.047.341a1.65,1.65,0,0,0-.25.156l-.095-.062c-.231-1.94-2.244-3.812-3.525-5.081a31.613,31.613,0,0,0-4.875-3.965,1.558,1.558,0,0,0-.3-.433c-2.052-2.046-5.941-.969-7.745.887a6.091,6.091,0,0,0-.58,7.6,1.229,1.229,0,0,0,.937.523,70.686,70.686,0,0,0,6.044,9.1c-5.948,3.692-13.177,4.213-20.1,3.441-8.659-.967-14.07-7.774-17.546-15.269-7.071-15.24-3.062-34.5,14.288-39.768.819,2.245,1.67,4.451,2.563,6.581a1.5,1.5,0,0,0,2.581.469,7.222,7.222,0,0,0,6.664.427c2.457-1.174,5.691-5.476,3.711-8.164a1.888,1.888,0,0,0-1.06-.747c-.143-.755-.323-1.521-.5-2.285,5.222.125,10.454-.018,15.1,2.674,5.218,3.027,7.938,8.459,9.651,14.113A36.878,36.878,0,0,1,608.745,716.066Zm30.985-33.59c-4.4,2.23-8.81,4.388-13.313,6.4-2.743,1.226-7.145,2.038-8.413,4.947-.012.007-.025.012-.037.02a39.337,39.337,0,0,0-1.688-8.986c4.272-1.118,8.474-2.748,12.619-4.265,3.169-1.159,6.734-2.117,9.685-3.86.067.316.138.63.219.935a23.415,23.415,0,0,0,1.717,4.581A2.161,2.161,0,0,0,639.73,682.476ZM811.62,538.829q.674,2.664,1.44,5.291a23.9,23.9,0,0,0-6.549.461c-.191-1.42-.443-2.835-.569-4.261a17.172,17.172,0,0,0-.264-3.005,9.02,9.02,0,0,0,5.648.427C811.418,538.088,811.522,538.445,811.62,538.829Zm-8.37-15.69c3.141-3.034,8.689-2.663,10.942,1.225a6.592,6.592,0,0,1-2.651,9.449c-1.987.975-3.5.478-5.539.637-.49.039-1.357.071-1.594.682a1.458,1.458,0,0,0-.33-.6C801.149,531.41,799.756,526.515,803.25,523.138Zm-9.658,44.441c.024-.025.054-.042.077-.07a1.7,1.7,0,0,0,.146-2.048,38.884,38.884,0,0,1,2.918-10.058,1.888,1.888,0,0,0,2.578-.689c5.812-8.7,18.27-7.275,26.047-2.126,10.285,6.809,8.856,19.858,2.13,28.745-6.632,8.764-18.286,11.873-27.124,4.158C794.86,580.687,793.121,574.183,793.592,567.579Zm-19.857-14.773c6.276,1.069,12.63,1.784,18.936,2.537a30.239,30.239,0,0,0-3.327,9.585l-.044,0a1.155,1.155,0,0,0-.56-.589c-3.1-1.507-6.67-1.557-10.068-1.964-1.411-.169-2.824-.317-4.238-.453a2.219,2.219,0,0,0-2.822-.245c-1.9-.147-3.8-.261-5.7-.318a1.142,1.142,0,0,0-1.06.615,9.309,9.309,0,0,1-.492-6.462c.473-1.712,1.617-2.763,2.562-4.037q2.383.528,4.787.97A1.278,1.278,0,0,0,773.735,552.807Zm-31.624-16.638c10.24-2.37,22.749,3.811,27.966,12.818-.777-.052-1.554-.086-2.329-.124a1.246,1.246,0,0,0-1.208-.77c-3.274.09-5.259,3.9-5.864,6.748a9.747,9.747,0,0,0,2.551,8.9,1.1,1.1,0,0,0,1.759-.221,1.122,1.122,0,0,0,.585.358c1.578.371,3.164.7,4.753,1-2.958,9.172-10.4,16.4-20.654,16.481a23.475,23.475,0,0,1-23.221-19.162C724.359,551.264,730.76,538.8,742.111,536.169Zm-20.559,30.963a1.669,1.669,0,0,0,.36-.786,3.414,3.414,0,0,0,.816-.2,28.812,28.812,0,0,0,2.332,5.438q-13.142,10.077-26.573,19.692a32.592,32.592,0,0,0-6.5-6.953C702.255,581.355,714.85,575.1,721.552,567.132Zm-56.328-9.262c-3.109-4.51-.073-10.512,4.333-12.837A10.11,10.11,0,0,1,682.69,549.2c2.554,4.875-.6,9.9-5.23,11.568a1.231,1.231,0,0,0-.293.064,1.939,1.939,0,0,0-1.057.346,1.687,1.687,0,0,0-.417.2A9.762,9.762,0,0,1,665.225,557.87Zm5.48,7.549a10.471,10.471,0,0,0,4.854-.85l.048.038c.359,4.41.957,8.818,1.512,13.2-.128-.018-.255-.046-.383-.062a26.589,26.589,0,0,0-5.926-.086C670.642,573.57,670.966,569.467,670.7,565.418Zm-19.369,33.306c2.724-11.251,15.18-18.1,26.25-16,10.012,1.9,18.5,10.351,20.746,20.229,1.5,6.594.282,14.037-4.649,18.939-3.538,3.518-7.731,4.272-12.24,5.074.538-3.144.931-6.3,1.161-9.444a2,2,0,0,0-2.376-1.953c-2.8-2.345-7.023-2.495-10.344-1.2-1.054-.64-2.562-.444-2.787,1.078q-.627,4.258-1.245,8.523C655.914,619.376,648.513,610.382,651.336,598.724Zm27.046,20.106c-1.126,7.6-2.358,15.115-3.873,22.666a1.773,1.773,0,0,0-.008.61,22.634,22.634,0,0,0-7.865-1.628c1.757-7.726,2.944-15.571,4.17-23.4C673.68,616.295,675.986,617.216,678.382,618.831Zm-3.423,68.479c-11.519,7.009-28.2,3.211-31.874-10.823-3.051-11.644,2.225-21.15,10.578-28.169a1.694,1.694,0,0,0,2.3.252c10.649-7.852,24.532-1.742,29.356,9.753C689.784,668.956,684.59,681.45,674.958,687.31Zm15.35,8.568c-3.487-2.218-7.013-4.369-10.484-6.611a29.875,29.875,0,0,0,6.485-6.931,103.693,103.693,0,0,0,8.622,7.347c2.58,1.95,5.5,4.405,8.58,5.761a18.337,18.337,0,0,0-5.62,5.168C695.528,698.827,692.746,697.429,690.309,695.878Zm27.069,67.763c-2.383,3.523-7.514,5.163-11.337,3.07a8.231,8.231,0,0,1-3.534-10.73c2.192-4.466,7.982-5.474,12.332-3.973a.942.942,0,0,0,1.145-.318,1.775,1.775,0,0,0,.211.008C718.9,755.06,719.958,759.827,717.378,763.641ZM708.5,733.6a24.057,24.057,0,0,0,7.7,1.351c-.738,4.725-1.271,9.465-1.566,14.241a11.15,11.15,0,0,0-5.619-1.491C709.026,743.015,708.941,738.271,708.5,733.6Zm11.979-3.46c-8.215,2.044-17.664-2.573-20.74-10.456-3.232-8.286.605-16.72,6.61-22.559a1.393,1.393,0,0,0,2.17.06c7.685-8.274,23.929-1.879,26.637,8.055C737.915,715.38,730.609,727.619,720.475,730.14Zm15.5-33.217c-4.65-6-24.589-12.8-29.248-3.794-2.487-2.625-6.263-4.406-9.261-6.421q-4.906-3.3-9.761-6.674c4.137-7.489,5.055-16.638,1.171-24.689a27.335,27.335,0,0,0-11.932-12.127,1.6,1.6,0,0,0,.664-.867,106.523,106.523,0,0,0,3.063-11.393c12.645,3.722,23.356-11.421,23.282-22.792a29.788,29.788,0,0,0-4.131-14.821,151.844,151.844,0,0,0,27.466-18.362,27.6,27.6,0,0,0,17.933,10.653,26.575,26.575,0,0,0,29.585-19.949q1.671.27,3.349.512c2.864.409,5.794,1.09,8.678.9a10.693,10.693,0,0,0,2.144.939h0c-.505,8.5,2.735,16.994,10.284,22.343a21,21,0,0,0,20.484,2.393,112.66,112.66,0,0,0,7.651,32.2,25.9,25.9,0,0,0-14.2,11.3c-5.039,8.685-6.516,21.756-1.028,30.184-2.411,2.226-4.173,5.594-6.1,8.2-2.042,2.767-4.206,5.437-6.361,8.114a24.05,24.05,0,0,0-3.534-3.4c-9.557-7.424-23.6-5.969-32.774,1.341-6.827,5.44-9.25,12.375-8.69,19.078a69.967,69.967,0,0,1-15.228,4.337A19.7,19.7,0,0,0,735.976,696.923Zm3.588,18.089a23.815,23.815,0,0,0,.4-8.361,48.866,48.866,0,0,0,15.365-3.065,26.246,26.246,0,0,0,2.729,6.661C751.888,711.077,745.526,713.125,739.563,715.012Zm25.366-2.02c-8.984-9.173-7.493-23.6,3.422-30.463,16.921-10.634,39.193,4.711,31.3,24.307a1.776,1.776,0,0,0-.114.442c-.894-.5-1.794-.988-2.7-1.466-.036-.037-.058-.078-.1-.114-2.074-1.809-5.7-.572-7.751.8a9.279,9.279,0,0,0-4.236,6.808,1.368,1.368,0,0,0,.4,1.053.993.993,0,0,0,.341.975c.955.825,1.927,1.629,2.9,2.436C780.225,720.191,771.288,719.487,764.93,712.992Zm47.554,7.832a1.034,1.034,0,0,0,.67-1.171,2.011,2.011,0,0,0,.786.292c2.416.315,4.441.205,6.442,1.98a8.019,8.019,0,0,1,2.645,6.07c-.022,4.3-3.19,8.57-7.685,8.765C805.338,737.193,804.429,724.528,812.484,720.824Zm-6.547-4.594c.925.656,2.579,1.41,3.582,2.281a1.835,1.835,0,0,0,.136.348,10.772,10.772,0,0,0-5.869,5.072c-3.337-2.266-6.755-4.405-10.2-6.5a1.1,1.1,0,0,0-1.568-.959l-.007,0q-2.068-1.246-4.132-2.494a2.336,2.336,0,0,0,.111-.247,7.508,7.508,0,0,1,3.1-4.164,6.213,6.213,0,0,1,2.3-.9,17.446,17.446,0,0,0,2.425-.207c1.993,1.638,4.056,3.193,6.1,4.761C803.244,714.246,804.569,715.261,805.937,716.23Zm6.34-34.219c-2.458,3.579-5.02,7.092-7.462,10.683a24.484,24.484,0,0,0-3.488-7.807,109.324,109.324,0,0,0,7.431-8.154c1.89-2.276,4.241-4.776,5.637-7.509a17.074,17.074,0,0,0,4.933,3.43C816.5,675.25,814.393,678.93,812.276,682.012Zm35.3-50.528c9.388,6.419,12.386,19.61,6.188,29.186-7.521,11.619-19.65,10.6-31.527,7.836a2.165,2.165,0,0,0-1.353.1,21.357,21.357,0,0,1-4.313-2.927C804.252,647.706,825.983,616.722,847.572,631.483Zm-6.941-7.557a26.421,26.421,0,0,0-10.658.311c-2.79-10.981-5.135-21.846-6.99-33.034a27.786,27.786,0,0,0,7.935-7.061C831.927,597.529,836.2,611.343,840.631,623.926Zm4.047-51.387c-.642-.04-1.288-.068-1.934-.119-2.023-.16-4.055-.376-6.085-.473a25.829,25.829,0,0,0,.576-5.177,33.124,33.124,0,0,0,5.341.84,19.519,19.519,0,0,0,3.322.09A12.3,12.3,0,0,0,844.678,572.539Zm14.62,3.8c-1.984,2.255-6.038,2.979-8.539,1.175a4.58,4.58,0,0,1-1.456-1.754,1.509,1.509,0,0,0-.322-2.328c-.1-.046-.2-.079-.294-.12a20.076,20.076,0,0,1,.533-5.463c.007,0,.014,0,.022-.01,2.832-1.867,6.311-3.746,9.48-1.057A7.038,7.038,0,0,1,859.3,576.336Z" transform="translate(0 0)" fill="#ee202d"/>
    <path id="Path_454" data-name="Path 454" d="M741.084,653.161a.255.255,0,0,0,0,.509A.255.255,0,0,0,741.084,653.161Z" transform="translate(61.404 31.925)" fill="#ee202d"/>
  </g>
</svg>
