<svg xmlns="http://www.w3.org/2000/svg" width="17.875" height="13.75" viewBox="0 0 17.875 13.75">
  <g id="_658d5e2914bd0e70462c9028_mail_icon" data-name="658d5e2914bd0e70462c9028_mail icon" transform="translate(-2.063 -4.125)" opacity="0.3">
    <path id="Path_4451" data-name="Path 4451" d="M19.25,4.125H2.75a.687.687,0,0,0-.687.688V16.5a1.375,1.375,0,0,0,1.375,1.375H18.563A1.375,1.375,0,0,0,19.938,16.5V4.813a.688.688,0,0,0-.687-.687ZM8.482,11,3.438,15.623V6.377Zm1.014.937,1.04.945a.687.687,0,0,0,.928,0l1.04-.945L17.48,16.5H4.52ZM13.518,11l5.045-4.623v9.247Z" fill="#c2c2c2"/>
  </g>
</svg>
