<svg xmlns="http://www.w3.org/2000/svg" xmlns:xlink="http://www.w3.org/1999/xlink" width="44.164" height="44.165" viewBox="0 0 44.164 44.165">
  <defs>
    <clipPath id="clip-path">
      <rect id="Rectangle_341" data-name="Rectangle 341" width="23.947" height="23.948" fill="#1a75bc"/>
    </clipPath>
  </defs>
  <g id="Group_2034" data-name="Group 2034" transform="translate(-2178.284 -890.188)">
    <rect id="Rectangle_339" data-name="Rectangle 339" width="44.164" height="44.165" rx="5" transform="translate(2178.284 890.188)" fill="#fff"/>
    <g id="Group_165" data-name="Group 165" transform="translate(2188.393 900.297)" clip-path="url(#clip-path)">
      <path id="Path_338" data-name="Path 338" d="M132.053,176.161l-3.1,0c-3.489,0-5.744,2.313-5.744,5.894v2.718h-3.123a.488.488,0,0,0-.489.489v3.937a.488.488,0,0,0,.489.487H123.2v9.935a.487.487,0,0,0,.489.489h4.073a.489.489,0,0,0,.489-.489V189.68h3.651a.488.488,0,0,0,.489-.487v-3.937a.489.489,0,0,0-.489-.489h-3.652v-2.3c0-1.108.263-1.669,1.706-1.669h2.092a.488.488,0,0,0,.487-.489v-3.656A.489.489,0,0,0,132.053,176.161Z" transform="translate(-114.093 -176.156)" fill="#1a75bc"/>
    </g>
  </g>
</svg>
