<svg xmlns="http://www.w3.org/2000/svg" xmlns:xlink="http://www.w3.org/1999/xlink" width="34.79" height="34.791" viewBox="0 0 34.79 34.791">
  <defs>
    <clipPath id="clip-path">
      <rect id="Rectangle_341" data-name="Rectangle 341" width="14.462" height="14.462" fill="#eaebeb"/>
    </clipPath>
  </defs>
  <g id="Group_1781" data-name="Group 1781" transform="translate(0.4 0.4)">
    <rect id="Rectangle_339" data-name="Rectangle 339" width="33.99" height="33.991" rx="8" fill="none" stroke="#eaebeb" stroke-width="0.8"/>
    <g id="Group_165" data-name="Group 165" transform="translate(9.242 9.242)" clip-path="url(#clip-path)">
      <path id="Path_338" data-name="Path 338" d="M127.118,176.159l-1.875,0a3.294,3.294,0,0,0-3.469,3.559v1.641h-1.886a.3.3,0,0,0-.3.3v2.378a.3.3,0,0,0,.3.294h1.886v6a.294.294,0,0,0,.3.3h2.46a.3.3,0,0,0,.3-.3v-6h2.2a.3.3,0,0,0,.3-.294v-2.378a.3.3,0,0,0-.3-.3h-2.205v-1.391c0-.669.159-1.008,1.03-1.008h1.263a.3.3,0,0,0,.294-.3v-2.208A.3.3,0,0,0,127.118,176.159Z" transform="translate(-116.272 -176.156)" fill="#eaebeb"/>
    </g>
  </g>
</svg>
