<svg xmlns="http://www.w3.org/2000/svg" xmlns:xlink="http://www.w3.org/1999/xlink" width="39.623" height="39.624" viewBox="0 0 39.623 39.624">
  <defs>
    <clipPath id="clip-path">
      <rect id="Rectangle_345" data-name="Rectangle 345" width="15.908" height="15.908" fill="#2a2522"/>
    </clipPath>
  </defs>
  <g id="Group_1883" data-name="Group 1883" transform="translate(0.5 0.5)">
    <rect id="Rectangle_1714" data-name="Rectangle 1714" width="38.623" height="38.624" rx="19" transform="translate(0 0)" fill="none" stroke="#2a2522" stroke-width="1"/>
    <g id="Group_167" data-name="Group 167" transform="translate(11.242 11.242)" clip-path="url(#clip-path)">
      <path id="Path_340" data-name="Path 340" d="M258.557,182.406H255v10.937h3.557Z" transform="translate(-255 -177.435)" fill="#2a2522"/>
      <path id="Path_341" data-name="Path 341" d="M269.526,182.535c-.037-.012-.073-.025-.113-.037s-.1-.019-.145-.027a3.153,3.153,0,0,0-.638-.065,4.943,4.943,0,0,0-3.823,2.091v-2.091H261.25v10.937h3.558v-5.966s2.689-3.744,3.823-.994v6.96h3.556v-7.381A3.547,3.547,0,0,0,269.526,182.535Z" transform="translate(-256.279 -177.435)" fill="#2a2522"/>
      <path id="Path_342" data-name="Path 342" d="M256.74,179.636A1.74,1.74,0,1,0,255,177.9,1.739,1.739,0,0,0,256.74,179.636Z" transform="translate(-255 -176.156)" fill="#2a2522"/>
    </g>
  </g>
</svg>
