<svg xmlns="http://www.w3.org/2000/svg" xmlns:xlink="http://www.w3.org/1999/xlink" width="39.623" height="39.624" viewBox="0 0 39.623 39.624">
  <defs>
    <clipPath id="clip-path">
      <rect id="Rectangle_341" data-name="Rectangle 341" width="20.943" height="20.943" fill="#2a2522"/>
    </clipPath>
  </defs>
  <g id="Group_1885" data-name="Group 1885" transform="translate(0.5 0.5)">
    <rect id="Rectangle_339" data-name="Rectangle 339" width="38.623" height="38.624" rx="19" transform="translate(0)" fill="none" stroke="#2a2522" stroke-width="1"/>
    <g id="Group_165" data-name="Group 165" transform="translate(8.841 8.841)" clip-path="url(#clip-path)">
      <path id="Path_338" data-name="Path 338" d="M130.489,176.16l-2.715,0a4.77,4.77,0,0,0-5.023,5.154v2.377H120.02a.427.427,0,0,0-.427.427v3.443a.427.427,0,0,0,.427.426h2.731v8.688a.426.426,0,0,0,.427.427h3.562a.428.428,0,0,0,.427-.427v-8.688h3.193a.427.427,0,0,0,.427-.426v-3.443a.427.427,0,0,0-.427-.427h-3.194v-2.015c0-.969.23-1.46,1.492-1.46h1.829a.427.427,0,0,0,.426-.427v-3.2A.427.427,0,0,0,130.489,176.16Z" transform="translate(-114.783 -176.156)" fill="#2a2522"/>
    </g>
  </g>
</svg>
