<svg xmlns="http://www.w3.org/2000/svg" width="39.623" height="39.624" viewBox="0 0 39.623 39.624">
  <g id="Group_1882" data-name="Group 1882" transform="translate(0.5 0.5)">
    <rect id="Rectangle_1715" data-name="Rectangle 1715" width="38.623" height="38.624" rx="19" transform="translate(0 0)" fill="none" stroke="#2a2522" stroke-width="1"/>
    <path id="Icon_akar-tiktok-fill" data-name="Icon akar-tiktok-fill" d="M16.484,4.821a3.935,3.935,0,0,1-.34-.2,4.783,4.783,0,0,1-.873-.742,4.114,4.114,0,0,1-.985-2.031h0a2.468,2.468,0,0,1-.038-.724H11.282V12.6c0,.154,0,.306-.006.457,0,.018,0,.035,0,.056a.1.1,0,0,1,0,.025v.007a2.519,2.519,0,0,1-1.267,2,2.478,2.478,0,0,1-1.229.324,2.52,2.52,0,0,1,0-5.041,2.48,2.48,0,0,1,.771.123l0-3.023A5.513,5.513,0,0,0,5.3,8.775,5.824,5.824,0,0,0,4.03,10.341a5.429,5.429,0,0,0-.655,2.493,5.88,5.88,0,0,0,.319,1.97v.008A5.786,5.786,0,0,0,4.5,16.281a6.034,6.034,0,0,0,1.286,1.213v-.008l.007.008a5.558,5.558,0,0,0,3.03.912,5.373,5.373,0,0,0,2.249-.5A5.642,5.642,0,0,0,12.9,16.537a5.706,5.706,0,0,0,1-1.654,6.189,6.189,0,0,0,.358-1.891V6.9c.036.022.516.339.516.339a6.857,6.857,0,0,0,1.769.731,10.211,10.211,0,0,0,1.815.249V5.275a3.851,3.851,0,0,1-1.866-.453Z" transform="translate(8.452 9.533)" fill="#2a2522"/>
  </g>
</svg>
