<svg xmlns="http://www.w3.org/2000/svg" width="39.623" height="39.624" viewBox="0 0 39.623 39.624">
  <g id="Group_1884" data-name="Group 1884" transform="translate(0.5 0.5)">
    <rect id="Rectangle_1713" data-name="Rectangle 1713" width="38.623" height="38.624" rx="19" transform="translate(0 0)" fill="none" stroke="#2a2522" stroke-width="1"/>
    <path id="Icon_awesome-instagram" data-name="Icon awesome-instagram" d="M8.669,6.462a4.446,4.446,0,1,0,4.446,4.446A4.439,4.439,0,0,0,8.669,6.462Zm0,7.337a2.891,2.891,0,1,1,2.891-2.891A2.9,2.9,0,0,1,8.669,13.8Zm5.665-7.519A1.037,1.037,0,1,1,13.3,5.243,1.035,1.035,0,0,1,14.335,6.281Zm2.945,1.053a5.132,5.132,0,0,0-1.4-3.634,5.166,5.166,0,0,0-3.634-1.4c-1.432-.081-5.723-.081-7.155,0A5.158,5.158,0,0,0,1.456,3.7a5.149,5.149,0,0,0-1.4,3.634c-.081,1.432-.081,5.723,0,7.155a5.132,5.132,0,0,0,1.4,3.634,5.172,5.172,0,0,0,3.634,1.4c1.432.081,5.723.081,7.155,0a5.132,5.132,0,0,0,3.634-1.4,5.166,5.166,0,0,0,1.4-3.634c.081-1.432.081-5.719,0-7.151Zm-1.85,8.687a2.927,2.927,0,0,1-1.648,1.648c-1.142.453-3.85.348-5.112.348s-3.974.1-5.112-.348a2.927,2.927,0,0,1-1.648-1.648c-.453-1.142-.348-3.85-.348-5.112s-.1-3.974.348-5.112A2.927,2.927,0,0,1,3.558,4.148C4.7,3.7,7.408,3.8,8.669,3.8s3.974-.1,5.112.348A2.927,2.927,0,0,1,15.43,5.8c.453,1.142.348,3.85.348,5.112S15.882,14.883,15.43,16.021Z" transform="translate(10.521 8.279)" fill="#2a2522"/>
  </g>
</svg>
