<svg xmlns="http://www.w3.org/2000/svg" width="39.623" height="39.624" viewBox="0 0 39.623 39.624">
  <g id="Group_2015" data-name="Group 2015" transform="translate(0.5 0.5)">
    <g id="Group_2014" data-name="Group 2014">
      <path id="Icon_zocial-email" data-name="Icon zocial-email" d="M.072,16.127V5.24q0-.019.057-.359l6.407,5.481L.148,16.5a1.6,1.6,0,0,1-.076-.378Zm.851-12a.815.815,0,0,1,.321-.057H18.5a1.07,1.07,0,0,1,.34.057l-6.426,5.5-.851.68-1.682,1.38L8.2,10.305l-.851-.68ZM.941,17.242l6.445-6.181,2.495,2.022,2.495-2.022,6.445,6.181a.907.907,0,0,1-.321.057H1.244a.856.856,0,0,1-.3-.057Zm12.285-6.88,6.388-5.481a1.128,1.128,0,0,1,.057.359V16.127a1.449,1.449,0,0,1-.057.378Z" transform="translate(9.439 8.629)" fill="#a5cd37"/>
      <rect id="Rectangle_339" data-name="Rectangle 339" width="38.623" height="38.624" rx="5" fill="none" stroke="#a5cd37" stroke-width="1"/>
    </g>
  </g>
</svg>
