<svg xmlns="http://www.w3.org/2000/svg" width="32.783" height="32.784" viewBox="0 0 32.783 32.784">
  <g id="Group_1808" data-name="Group 1808" transform="translate(0.4 0.4)">
    <rect id="Rectangle_1689" data-name="Rectangle 1689" width="31.983" height="31.983" rx="5" transform="translate(0)" fill="none" stroke="#eaebeb" stroke-width="0.8"/>
    <path id="Icon_corebrands-minutemailer" data-name="Icon corebrands-minutemailer" d="M4.056,0,6.574,2.723,4.8,6.221l3.749-.672,1.706,4.119L17.5.163ZM3.6,5.9l.7-.573-.9.285L3.3,5.477l.374-.361-.487.2a4.967,4.967,0,0,0-1.629,8.246A4.925,4.925,0,0,1,.908,11.11a5.092,5.092,0,0,1,3.147-4.68l.231-.558-.547.239L3.586,5.9ZM6.777,4.46,7.942,2.4,14.795.8Z" transform="translate(7.086 14.529) rotate(-22)" fill="#eaebeb"/>
  </g>
</svg>
