<svg xmlns="http://www.w3.org/2000/svg" width="42" height="42" viewBox="0 0 42 42">
  <g id="Group_2048" data-name="Group 2048" transform="translate(-1416 -111)">
    <g id="Ellipse_90" data-name="Ellipse 90" transform="translate(1416 111)" fill="none" stroke="#fff" stroke-width="1">
      <circle cx="21" cy="21" r="21" stroke="none"/>
      <circle cx="21" cy="21" r="20.5" fill="none"/>
    </g>
    <g id="Group_2047" data-name="Group 2047" transform="translate(747.284 -370.558)">
      <path id="Path_470" data-name="Path 470" d="M688.659,512.66c-1.9,0-3.8,0-5.693,0a2.44,2.44,0,0,1-2.493-2.552,4.043,4.043,0,0,1,.888-2.477,4.1,4.1,0,0,1,3.32-1.638q3.981-.025,7.963,0a4.218,4.218,0,0,1,4.215,4.211,2.433,2.433,0,0,1-2.423,2.455c-1.925.01-3.851,0-5.776,0Z" transform="translate(0 -1.348)" fill="#fff"/>
      <path id="Path_471" data-name="Path 471" d="M693.592,498.979a4.42,4.42,0,1,1-4.429-4.417A4.418,4.418,0,0,1,693.592,498.979Z" transform="translate(-0.506)" fill="#fff"/>
      <path id="Path_472" data-name="Path 472" d="M697.559,503.707c-.416,0-.808.008-1.2,0a.656.656,0,0,1-.638-.878.614.614,0,0,1,.592-.434c.33-.01.661,0,.99-.005h.255c0-.161,0-.3,0-.444,0-.261-.007-.523,0-.783a.655.655,0,0,1,1.311-.012c.015.329.005.66.006.989v.25c.371,0,.72,0,1.07,0a1.291,1.291,0,0,1,.365.041.651.651,0,0,1,.437.693.659.659,0,0,1-.646.581c-.323.012-.646,0-.969,0h-.256c0,.172,0,.327,0,.482,0,.255.009.51-.006.763a.655.655,0,0,1-1.31-.013c-.012-.33,0-.661-.005-.99Z" transform="translate(-1.796 -0.702)" fill="#fff"/>
    </g>
  </g>
</svg>
