<svg xmlns="http://www.w3.org/2000/svg" width="44.164" height="44.165" viewBox="0 0 44.164 44.165">
  <g id="Group_2035" data-name="Group 2035" transform="translate(-2238.224 -890.188)">
    <rect id="Rectangle_1713" data-name="Rectangle 1713" width="44.164" height="44.165" rx="5" transform="translate(2238.224 890.188)" fill="#fff"/>
    <path id="Icon_awesome-instagram" data-name="Icon awesome-instagram" d="M9.914,7.069A5.084,5.084,0,1,0,15,12.153,5.076,5.076,0,0,0,9.914,7.069Zm0,8.39a3.305,3.305,0,1,1,3.305-3.305,3.311,3.311,0,0,1-3.305,3.305Zm6.478-8.6a1.186,1.186,0,1,1-1.186-1.186A1.183,1.183,0,0,1,16.392,6.861Zm3.367,1.2a5.869,5.869,0,0,0-1.6-4.155A5.907,5.907,0,0,0,14,2.307c-1.637-.093-6.544-.093-8.181,0A5.9,5.9,0,0,0,1.666,3.9,5.888,5.888,0,0,0,.064,8.06C-.029,9.7-.029,14.6.064,16.241a5.869,5.869,0,0,0,1.6,4.155A5.915,5.915,0,0,0,5.821,22c1.637.093,6.544.093,8.181,0a5.868,5.868,0,0,0,4.155-1.6,5.907,5.907,0,0,0,1.6-4.155c.093-1.637.093-6.54,0-8.177ZM17.644,18a3.346,3.346,0,0,1-1.885,1.885c-1.305.518-4.4.4-5.845.4s-4.544.115-5.845-.4A3.346,3.346,0,0,1,2.184,18c-.518-1.305-.4-4.4-.4-5.845s-.115-4.544.4-5.845A3.346,3.346,0,0,1,4.069,4.422c1.305-.518,4.4-.4,5.845-.4s4.544-.115,5.845.4a3.346,3.346,0,0,1,1.885,1.885c.518,1.305.4,4.4.4,5.845S18.162,16.7,17.644,18Z" transform="translate(2250.254 899.976)" fill="#1a75bc"/>
  </g>
</svg>
