<svg xmlns="http://www.w3.org/2000/svg" width="34.79" height="34.791" viewBox="0 0 34.79 34.791">
  <g id="Group_1780" data-name="Group 1780" transform="translate(0.4 0.4)">
    <rect id="Rectangle_1653" data-name="Rectangle 1653" width="33.99" height="33.991" rx="8" fill="none" stroke="#eaebeb" stroke-width="0.8"/>
    <path id="Path_4392" data-name="Path 4392" d="M9.1,2c1.93,0,2.171.007,2.928.043a5.233,5.233,0,0,1,1.725.33,3.464,3.464,0,0,1,1.259.819,3.486,3.486,0,0,1,.819,1.259,5.248,5.248,0,0,1,.33,1.725c.033.757.043,1,.043,2.928s-.007,2.171-.043,2.928a5.252,5.252,0,0,1-.33,1.725,3.627,3.627,0,0,1-2.078,2.078,5.248,5.248,0,0,1-1.725.33c-.757.033-1,.043-2.928.043s-2.171-.007-2.928-.043a5.252,5.252,0,0,1-1.725-.33,3.627,3.627,0,0,1-2.078-2.078,5.23,5.23,0,0,1-.33-1.725C2.009,11.275,2,11.034,2,9.1s.007-2.171.043-2.928a5.23,5.23,0,0,1,.33-1.725A3.627,3.627,0,0,1,4.451,2.373a5.23,5.23,0,0,1,1.725-.33C6.933,2.009,7.174,2,9.1,2Zm0,3.552a3.552,3.552,0,1,0,2.512,1.04A3.552,3.552,0,0,0,9.1,5.552Zm4.618-.178a.888.888,0,1,0-.26.628A.888.888,0,0,0,13.722,5.374ZM9.1,6.973A2.131,2.131,0,1,1,7.6,7.6,2.131,2.131,0,0,1,9.1,6.973Z" transform="translate(7.891 7.848)" fill="#eaebeb"/>
  </g>
</svg>
