<svg xmlns="http://www.w3.org/2000/svg" xmlns:xlink="http://www.w3.org/1999/xlink" width="34.79" height="34.791" viewBox="0 0 34.79 34.791">
  <defs>
    <clipPath id="clip-path">
      <rect id="Rectangle_345" data-name="Rectangle 345" width="15.772" height="15.772" fill="#eaebeb"/>
    </clipPath>
  </defs>
  <g id="Group_1778" data-name="Group 1778" transform="translate(0.4 0.4)">
    <rect id="Rectangle_1655" data-name="Rectangle 1655" width="33.99" height="33.991" rx="8" fill="none" stroke="#eaebeb" stroke-width="0.8"/>
    <g id="Group_167" data-name="Group 167" transform="translate(9.242 8.154)" clip-path="url(#clip-path)">
      <path id="Path_340" data-name="Path 340" d="M258.526,182.406H255v10.843h3.526Z" transform="translate(-255 -177.477)" fill="#eaebeb"/>
      <path id="Path_341" data-name="Path 341" d="M269.455,182.534c-.037-.012-.073-.025-.112-.036s-.1-.019-.144-.027a3.127,3.127,0,0,0-.632-.065,4.9,4.9,0,0,0-3.79,2.073v-2.073H261.25v10.843h3.527v-5.914s2.665-3.712,3.79-.986v6.9h3.526v-7.317A3.516,3.516,0,0,0,269.455,182.534Z" transform="translate(-256.321 -177.477)" fill="#eaebeb"/>
      <path id="Path_342" data-name="Path 342" d="M256.725,179.606A1.725,1.725,0,1,0,255,177.881,1.724,1.724,0,0,0,256.725,179.606Z" transform="translate(-255 -176.156)" fill="#eaebeb"/>
    </g>
  </g>
</svg>
