<svg xmlns="http://www.w3.org/2000/svg" xmlns:xlink="http://www.w3.org/1999/xlink" width="66" height="66" viewBox="0 0 66 66">
  <defs>
    <filter id="Rectangle_1802" x="0" y="0" width="66" height="66" filterUnits="userSpaceOnUse">
      <feOffset dy="3" input="SourceAlpha"/>
      <feGaussianBlur stdDeviation="3" result="blur"/>
      <feFlood flood-opacity="0.161"/>
      <feComposite operator="in" in2="blur"/>
      <feComposite in="SourceGraphic"/>
    </filter>
  </defs>
  <g id="Group_2091" data-name="Group 2091" transform="translate(14795 -885)">
    <g transform="matrix(1, 0, 0, 1, -14795, 885)" filter="url(#Rectangle_1802)">
      <rect id="Rectangle_1802-2" data-name="Rectangle 1802" width="48" height="48" rx="24" transform="translate(9 6)" fill="#db3c2a"/>
    </g>
    <path id="Icon_akar-google-fill" data-name="Icon akar-google-fill" d="M23.134,11.442a11.538,11.538,0,0,1,.195,2.121c0,5.772-3.863,9.876-9.7,9.876a10.1,10.1,0,0,1,0-20.2,9.694,9.694,0,0,1,6.756,2.633L17.54,8.715V8.708A5.534,5.534,0,0,0,13.632,7.18a6.154,6.154,0,0,0,0,12.306c3.024,0,5.083-1.729,5.506-4.1H13.632v-3.94h9.5Z" transform="translate(-14775.43 901.664)" fill="#fff"/>
  </g>
</svg>
