<svg xmlns="http://www.w3.org/2000/svg" xmlns:xlink="http://www.w3.org/1999/xlink" width="66" height="66" viewBox="0 0 66 66">
  <defs>
    <filter id="Rectangle_1803" x="0" y="0" width="66" height="66" filterUnits="userSpaceOnUse">
      <feOffset dy="3" input="SourceAlpha"/>
      <feGaussianBlur stdDeviation="3" result="blur"/>
      <feFlood flood-opacity="0.161"/>
      <feComposite operator="in" in2="blur"/>
      <feComposite in="SourceGraphic"/>
    </filter>
  </defs>
  <g id="Group_2093" data-name="Group 2093" transform="translate(14731 -885)">
    <g transform="matrix(1, 0, 0, 1, -14731, 885)" filter="url(#Rectangle_1803)">
      <rect id="Rectangle_1803-2" data-name="Rectangle 1803" width="48" height="48" rx="24" transform="translate(9 6)" fill="#0170ad"/>
    </g>
    <path id="Icon_akar-linkedin-v2-fill" data-name="Icon akar-linkedin-v2-fill" d="M10.505,10.04h3.752v1.869a4.3,4.3,0,0,1,4.009-2.041c3.991,0,4.939,2.14,4.939,6.066V23.2H19.164V16.828c0-2.236-.54-3.5-1.916-3.5-1.908,0-2.7,1.359-2.7,3.5V23.2H10.505ZM3.576,23.033H7.617V9.869H3.576V23.033ZM8.2,5.576A2.556,2.556,0,0,1,7.435,7.4,2.6,2.6,0,0,1,3,5.576a2.56,2.56,0,0,1,.761-1.821,2.613,2.613,0,0,1,3.674,0A2.564,2.564,0,0,1,8.2,5.576Z" transform="translate(-14711 900.898)" fill="#fff"/>
  </g>
</svg>
