<svg xmlns="http://www.w3.org/2000/svg" width="32.783" height="32.784" viewBox="0 0 32.783 32.784">
  <g id="Group_1807" data-name="Group 1807" transform="translate(0.4 0.4)">
    <rect id="Rectangle_1689" data-name="Rectangle 1689" width="31.983" height="31.983" rx="5" transform="translate(0)" fill="none" stroke="#eaebeb" stroke-width="0.8"/>
    <path id="Icon_ion-ios-telephone" data-name="Icon ion-ios-telephone" d="M18.74,15.606a6.124,6.124,0,0,0-3.253-1.683,1.155,1.155,0,0,0-.637.168,3.5,3.5,0,0,1-1.132.59c-.109,0-.226-.1-.484-.32l-.043-.039a13.549,13.549,0,0,1-1.144-1.07l-.07-.074c-.051-.051-.094-.1-.137-.141-.242-.25-.418-.43-1.039-1.132l-.027-.031c-.3-.336-.492-.555-.5-.715s.125-.41.473-.883a1.931,1.931,0,0,0,.051-2.089,9.5,9.5,0,0,0-1.257-1.8L9.5,6.335a1.686,1.686,0,0,0-1.324-.7,2.344,2.344,0,0,0-1.25.453c-.02.012-.039.027-.059.039a2.506,2.506,0,0,0-1.086,1.3c-.223.722-.371,1.66.7,3.608a17.437,17.437,0,0,0,3.085,4.182A18.639,18.639,0,0,0,12.605,17.8a7.081,7.081,0,0,0,3.64,1.574,2.656,2.656,0,0,0,2.511-1.168c1.015-1.226.594-1.976-.016-2.6Z" transform="translate(3.497 3.842)" fill="#eaebeb"/>
  </g>
</svg>
