<svg xmlns="http://www.w3.org/2000/svg" width="23" height="23" viewBox="0 0 23 23">
  <path id="_658d5e2979a86571cac0baf6_phone_icon" data-name="658d5e2979a86571cac0baf6_phone icon" d="M11.634,13.316a13.489,13.489,0,0,0,5.05,5.05l1.13-1.582a1.278,1.278,0,0,1,1.652-.379,14.594,14.594,0,0,0,5.856,1.743A1.278,1.278,0,0,1,26.5,19.422v5.7A1.278,1.278,0,0,1,25.353,26.4a20,20,0,0,1-2.047.1A19.806,19.806,0,0,1,3.5,6.694a20.019,20.019,0,0,1,.1-2.047A1.278,1.278,0,0,1,4.876,3.5h5.7a1.278,1.278,0,0,1,1.274,1.177,14.592,14.592,0,0,0,1.743,5.857,1.278,1.278,0,0,1-.379,1.652Zm-3.222-.839,2.428-1.734a17.134,17.134,0,0,1-1.4-4.687H6.067q-.012.319-.012.639a17.25,17.25,0,0,0,17.25,17.25q.32,0,.639-.012V20.562a17.135,17.135,0,0,1-4.687-1.4l-1.734,2.428A15.91,15.91,0,0,1,15.5,20.63l-.074-.042a16.043,16.043,0,0,1-6.009-6.008L9.37,14.5A15.9,15.9,0,0,1,8.412,12.477Z" transform="translate(-3.5 -3.5)" fill="#fff"/>
</svg>
