<svg xmlns="http://www.w3.org/2000/svg" width="63.998" height="45.232" viewBox="0 0 63.998 45.232">
  <g id="Group_1815" data-name="Group 1815" transform="translate(-412.522 393.767)">
    <path id="Path_4439" data-name="Path 4439" d="M412.522-370.15c.1-.419.186-.845.314-1.257a9.123,9.123,0,0,1,7.874-6.688c.086-.429.165-.9.274-1.355a11.287,11.287,0,0,1,12.428-8.655.691.691,0,0,0,.768-.321,12.67,12.67,0,0,1,20.662-.013.645.645,0,0,0,.7.346,11.293,11.293,0,0,1,12.7,9.669c.016.1.031.2.045.3,4.651.852,7.527,3.479,8.168,8.239a8.84,8.84,0,0,1-4.146,8.414c-.226-.685-.421-1.376-.678-2.044a13.662,13.662,0,0,0-12.608-8.749q-14.494-.046-28.989,0a13.709,13.709,0,0,0-13.142,10.252c-.047.18-.1.357-.17.6a9.037,9.037,0,0,1-3.95-5.519c-.091-.361-.169-.725-.253-1.088Z" transform="translate(0)" fill="#131313"/>
    <path id="Path_4440" data-name="Path 4440" d="M482.7-242.619c4.727,0,9.454-.014,14.181,0a9.976,9.976,0,0,1,10.01,8.39,10.019,10.019,0,0,1-8.422,11.483,14.818,14.818,0,0,1-1.8.113q-14.025.011-28.051,0a9.995,9.995,0,0,1-10.1-8.365,10.015,10.015,0,0,1,8.322-11.5,15.488,15.488,0,0,1,1.991-.125Q475.767-242.629,482.7-242.619Zm-1,16.208a1,1,0,0,0,.055-.211c0-2.893.05-5.787-.023-8.678a3.657,3.657,0,0,0-3.69-3.566,3.661,3.661,0,0,0-3.741,3.578c-.072,2.87-.023,5.743-.024,8.615a1.314,1.314,0,0,0,.048.246h2.459v-4.919h2.495v4.934Zm9.4.01c.015-.209.037-.372.037-.535,0-2.664.016-5.328,0-7.992a3.753,3.753,0,0,0-3.595-3.937,3.737,3.737,0,0,0-3.89,3.889c-.024,2.685-.007,5.37,0,8.054,0,.161.026.322.041.494h2.472v-4.918h2.5v4.944Zm9.552-11.191c-.539-.292-1.008-.6-1.517-.812a4.734,4.734,0,0,0-4.6.235,3.162,3.162,0,0,0-1.546,3.073A3,3,0,0,0,495-232.406c.637.253,1.274.509,1.9.781a9.56,9.56,0,0,1,1.513.72.9.9,0,0,1,.043,1.565,1.946,1.946,0,0,1-1.819.416,22.991,22.991,0,0,1-2.223-.869l-1.644,1.494a5.613,5.613,0,0,0,6.7,1.3,3.572,3.572,0,0,0,1.837-3.84,3.8,3.8,0,0,0-2.408-2.677c-.951-.418-1.932-.767-2.879-1.193-.228-.1-.529-.4-.519-.591a1.165,1.165,0,0,1,.453-.8,1.516,1.516,0,0,1,1-.248c.7.112,1.388.347,2.185.56Zm-36.884,9.279a5.5,5.5,0,0,0,6.849,1.213,3.436,3.436,0,0,0,1.692-3.619,3.707,3.707,0,0,0-2.433-2.8c-.913-.4-1.861-.723-2.764-1.144-.27-.126-.646-.508-.609-.7a1.267,1.267,0,0,1,.667-.837,2.739,2.739,0,0,1,1.4-.075,8.641,8.641,0,0,1,1.489.567l1.523-1.825a5.324,5.324,0,0,0-5.816-.8,3.238,3.238,0,0,0-1.793,3.185,3,3,0,0,0,2.025,2.745c.829.334,1.662.659,2.483,1.009a4.436,4.436,0,0,1,.98.531.879.879,0,0,1,.057,1.447,1.939,1.939,0,0,1-1.915.483,21.087,21.087,0,0,1-2.2-.871Z" transform="translate(-38.19 -125.911)" fill="#131313"/>
    <path id="Path_4441" data-name="Path 4441" d="M571.045-202.751h-2.519c.086-.8-.261-1.66.565-2.246a1.128,1.128,0,0,1,1.394,0C571.306-204.4,570.951-203.545,571.045-202.751Z" transform="translate(-129.958 -157.057)" fill="#131313"/>
    <path id="Path_4442" data-name="Path 4442" d="M627.184-202.75H624.67c.086-.806-.26-1.666.573-2.248a1.129,1.129,0,0,1,1.344-.019C627.436-204.455,627.111-203.587,627.184-202.75Z" transform="translate(-176.729 -157.062)" fill="#131313"/>
  </g>
</svg>
