<svg xmlns="http://www.w3.org/2000/svg" width="61.573" height="43.081" viewBox="0 0 61.573 43.081">
  <g id="Group_2151" data-name="Group 2151" transform="translate(-895.149 -383.321) rotate(180)">
    <path id="Path_4458" data-name="Path 4458" d="M-662.507-408.11c-.148,1.052-.259,2.111-.451,3.154A24.353,24.353,0,0,1-673-389.213a32.953,32.953,0,0,1-13.927,5.677c-.642.114-1.288.205-1.934.293a1.225,1.225,0,0,1-1.442-.847,1.2,1.2,0,0,1,.715-1.558,25.147,25.147,0,0,0,5.392-3.2,10.7,10.7,0,0,0,3.607-4.686,5.656,5.656,0,0,0-.234-4.712,3.217,3.217,0,0,0-1.971-1.782,8.8,8.8,0,0,1-5.829-5.021c-2.435-5.063-2.559-10.127.569-14.964a13.683,13.683,0,0,1,19.33-3.8,14.789,14.789,0,0,1,5.611,8.946c.275,1.166.4,2.366.6,3.55Z" transform="translate(-232.642 -0.095)" fill="#c7c7c7"/>
    <path id="Path_4459" data-name="Path 4459" d="M-922.84-408.926c-.282,9.55-5.163,17.121-14.344,21.971a34.942,34.942,0,0,1-12.026,3.619,1.228,1.228,0,0,1-1.435-.859,1.2,1.2,0,0,1,.726-1.553,25.55,25.55,0,0,0,5.2-3.052,10.866,10.866,0,0,0,3.789-4.838,5.637,5.637,0,0,0-.244-4.711,3.388,3.388,0,0,0-2.146-1.835,7.978,7.978,0,0,1-4.493-3.116c-5.088-6.917-3.768-18.182,5.958-22.1,6.346-2.554,14.129-.322,17.46,7.531A22.368,22.368,0,0,1-922.84-408.926Z" transform="translate(-6)" fill="#c7c7c7"/>
  </g>
</svg>
