<svg id="Group_2143" data-name="Group 2143" xmlns="http://www.w3.org/2000/svg" width="14.368" height="14.366" viewBox="0 0 14.368 14.366">
  <path id="Path_4451" data-name="Path 4451" d="M-1132.13,368.651v-8.277a.6.6,0,0,0,.026-.091,2.768,2.768,0,0,1,2.521-2.38c.249-.016.5,0,.763,0,0-.158.008-.283,0-.408a.624.624,0,0,1,.451-.711h.224a.637.637,0,0,1,.45.729c-.01.119,0,.24,0,.367h5.5c0-.127.008-.248,0-.368a.637.637,0,0,1,.449-.728h.224a.625.625,0,0,1,.451.713c-.01.124,0,.25,0,.391.167,0,.32,0,.473,0a2.777,2.777,0,0,1,2.836,2.756q.006,3.878,0,7.755a2.76,2.76,0,0,1-2.744,2.746q-4.439.012-8.877,0a2.763,2.763,0,0,1-2.663-2.125C-1132.08,368.9-1132.1,368.774-1132.13,368.651Zm1.122-6.326v.144q0,2.938,0,5.877a1.648,1.648,0,0,0,1.668,1.676q4.39.006,8.781,0a1.648,1.648,0,0,0,1.672-1.687q0-2.932,0-5.863c0-.049,0-.1-.006-.148Zm2.188-3.3a1.782,1.782,0,0,0-2.167,2.166h12.085a1.782,1.782,0,0,0-2.173-2.16c0,.358,0,.717,0,1.076a.551.551,0,0,1-.549.557.555.555,0,0,1-.57-.551c0-.149,0-.3,0-.449,0-.213,0-.427,0-.643h-5.49a.2.2,0,0,0-.01.038c0,.332,0,.664,0,1a.562.562,0,0,1-.556.609.56.56,0,0,1-.566-.611C-1128.821,359.71-1128.82,359.37-1128.82,359.023Z" transform="translate(1132.13 -356.783)" fill="#959595"/>
  <path id="Path_4452" data-name="Path 4452" d="M-1057.466,636.689c.182,0,.364,0,.546,0a.559.559,0,0,1,.553.555.558.558,0,0,1-.545.564q-.567.012-1.135,0a.561.561,0,0,1-.547-.562.561.561,0,0,1,.553-.556C-1057.849,636.685-1057.658,636.689-1057.466,636.689Z" transform="translate(1061.35 -626.196)" fill="#959595"/>
  <path id="Path_4453" data-name="Path 4453" d="M-880.7,637.8c-.177,0-.355,0-.532,0a.565.565,0,0,1-.574-.564.561.561,0,0,1,.58-.557q.532,0,1.065,0a.564.564,0,0,1,.582.556.568.568,0,0,1-.588.566C-880.35,637.8-880.527,637.8-880.7,637.8Z" transform="translate(891.193 -626.184)" fill="#959595"/>
  <path id="Path_4454" data-name="Path 4454" d="M-880.694,549.485c-.182,0-.364,0-.546,0a.564.564,0,0,1-.571-.567.56.56,0,0,1,.569-.554q.546-.005,1.092,0a.562.562,0,0,1,.565.558.564.564,0,0,1-.563.561C-880.329,549.489-880.512,549.485-880.694,549.485Z" transform="translate(891.193 -541.181)" fill="#959595"/>
  <path id="Path_4455" data-name="Path 4455" d="M-1057.477,548.387c.182,0,.364,0,.546,0a.561.561,0,0,1,.563.56.56.56,0,0,1-.562.56c-.364.005-.728,0-1.093,0a.564.564,0,0,1-.571-.567.565.565,0,0,1,.57-.553C-1057.842,548.385-1057.659,548.387-1057.477,548.387Z" transform="translate(1061.35 -541.204)" fill="#959595"/>
  <path id="Path_4456" data-name="Path 4456" d="M-969.2,549.479c-.182,0-.364,0-.546,0a.564.564,0,0,1-.563-.561.561.561,0,0,1,.564-.559c.369,0,.738,0,1.106,0a.555.555,0,0,1,.554.553.559.559,0,0,1-.555.567C-968.822,549.483-969.009,549.479-969.2,549.479Z" transform="translate(976.371 -541.174)" fill="#959595"/>
  <path id="Path_4457" data-name="Path 4457" d="M-969.19,636.69c.182,0,.364,0,.546,0a.558.558,0,0,1,.562.56.559.559,0,0,1-.562.56c-.369.005-.738.006-1.106,0a.563.563,0,0,1-.557-.567.561.561,0,0,1,.557-.552C-969.563,636.687-969.376,636.69-969.19,636.69Z" transform="translate(976.372 -626.198)" fill="#959595"/>
</svg>
