<svg xmlns="http://www.w3.org/2000/svg" width="39.623" height="39.624" viewBox="0 0 39.623 39.624">
  <g id="Group_2223" data-name="Group 2223" transform="translate(-249.5 -548.5)">
    <rect id="Rectangle_339" data-name="Rectangle 339" width="38.623" height="38.624" rx="4" transform="translate(250 549)" fill="none" stroke="#eaebeb" stroke-width="1"/>
    <path id="Icon_awesome-phone-alt" data-name="Icon awesome-phone-alt" d="M15.558,11.317l-3.5-1.5a.751.751,0,0,0-.876.216l-1.551,1.9A11.594,11.594,0,0,1,4.085,6.385l1.9-1.551A.749.749,0,0,0,6.2,3.957L4.7.454a.756.756,0,0,0-.86-.435L.582.77A.751.751,0,0,0,0,1.5,14.512,14.512,0,0,0,14.514,16.015a.751.751,0,0,0,.732-.582L16,12.18a.76.76,0,0,0-.438-.863Z" transform="translate(261.304 560.304)" fill="#eaebeb"/>
  </g>
</svg>
