<svg xmlns="http://www.w3.org/2000/svg" width="44.164" height="44.165" viewBox="0 0 44.164 44.165">
  <g id="Group_2032" data-name="Group 2032" transform="translate(-2057.404 -890.188)">
    <rect id="Rectangle_1754" data-name="Rectangle 1754" width="44.164" height="44.165" rx="5" transform="translate(2057.404 890.188)" fill="#fff"/>
    <path id="Icon_akar-tiktok-fill" data-name="Icon akar-tiktok-fill" d="M18.9,5.5a4.66,4.66,0,0,1-.4-.235,5.663,5.663,0,0,1-1.034-.878,4.871,4.871,0,0,1-1.166-2.405h0a2.922,2.922,0,0,1-.045-.857H12.738V14.713c0,.182,0,.363-.007.541,0,.022,0,.042,0,.066a.115.115,0,0,1,0,.03v.008a2.983,2.983,0,0,1-1.5,2.368,2.933,2.933,0,0,1-1.455.384,2.984,2.984,0,0,1,0-5.968,2.937,2.937,0,0,1,.913.145l0-3.579a6.527,6.527,0,0,0-5.03,1.473,6.9,6.9,0,0,0-1.5,1.855,6.427,6.427,0,0,0-.776,2.952,6.962,6.962,0,0,0,.377,2.332v.009a6.85,6.85,0,0,0,.954,1.74,7.144,7.144,0,0,0,1.522,1.437V20.5l.008.009a6.581,6.581,0,0,0,3.587,1.079A6.361,6.361,0,0,0,12.487,21a6.68,6.68,0,0,0,2.161-1.625,6.756,6.756,0,0,0,1.178-1.958,7.327,7.327,0,0,0,.424-2.239V7.966c.043.025.611.4.611.4a8.119,8.119,0,0,0,2.094.866,12.089,12.089,0,0,0,2.149.295V6.038A4.559,4.559,0,0,1,18.9,5.5Z" transform="translate(2067.249 900.915)" fill="#1a75bc"/>
  </g>
</svg>
