<svg xmlns="http://www.w3.org/2000/svg" width="34.79" height="34.791" viewBox="0 0 34.79 34.791">
  <g id="Group_1779" data-name="Group 1779" transform="translate(0.4 0.4)">
    <rect id="Rectangle_1654" data-name="Rectangle 1654" width="33.99" height="33.991" rx="8" fill="none" stroke="#eaebeb" stroke-width="0.8"/>
    <path id="Path_339" data-name="Path 339" d="M199.644,179.44a6.265,6.265,0,0,1-1.73.474,2.985,2.985,0,0,0,1.321-1.659,5.981,5.981,0,0,1-1.9.727,3,3,0,0,0-5.193,2.053,3.056,3.056,0,0,0,.07.684,8.5,8.5,0,0,1-6.189-3.14,3,3,0,0,0,.923,4.012,2.971,2.971,0,0,1-1.356-.37v.033a3.015,3.015,0,0,0,2.405,2.949,2.977,2.977,0,0,1-.787.1,2.649,2.649,0,0,1-.568-.051,3.031,3.031,0,0,0,2.805,2.092,6.033,6.033,0,0,1-3.723,1.28,5.653,5.653,0,0,1-.718-.041,8.545,8.545,0,0,0,13.15-7.2c0-.133,0-.261-.011-.388A6,6,0,0,0,199.644,179.44Z" transform="translate(-175.758 -167.028)" fill="#eaebeb"/>
  </g>
</svg>
