<svg xmlns="http://www.w3.org/2000/svg" width="44.164" height="44.165" viewBox="0 0 44.164 44.165">
  <g id="Group_2037" data-name="Group 2037" transform="translate(-2358.106 -890.188)">
    <rect id="Rectangle_1715" data-name="Rectangle 1715" width="44.164" height="44.165" rx="5" transform="translate(2358.106 890.188)" fill="#fff"/>
    <path id="Icon_akar-whatsapp-fill" data-name="Icon akar-whatsapp-fill" d="M15.594,12.878c-.267-.133-1.575-.776-1.819-.866s-.421-.133-.6.134-.687.865-.842,1.042-.311.2-.577.067a7.305,7.305,0,0,1-2.14-1.321,8.01,8.01,0,0,1-1.48-1.844c-.155-.266-.017-.41.116-.543s.266-.311.4-.466a1.8,1.8,0,0,0,.266-.445A.485.485,0,0,0,8.9,8.173c-.066-.133-.6-1.443-.82-1.976s-.435-.448-.6-.457-.333-.009-.51-.009a.975.975,0,0,0-.709.333,2.98,2.98,0,0,0-.931,2.22,5.178,5.178,0,0,0,1.086,2.753,11.864,11.864,0,0,0,4.545,4.018,15.2,15.2,0,0,0,1.517.56,3.633,3.633,0,0,0,1.676.106,2.743,2.743,0,0,0,1.8-1.265,2.231,2.231,0,0,0,.155-1.265c-.066-.111-.244-.177-.51-.311Zm-4.855,6.629h0a8.839,8.839,0,0,1-4.507-1.235l-.321-.191-3.351.879.895-3.267-.21-.335a8.851,8.851,0,1,1,7.5,4.148ZM18.271,3.123A10.652,10.652,0,0,0,1.511,15.972L0,21.491l5.645-1.481a10.639,10.639,0,0,0,5.09,1.3h0A10.654,10.654,0,0,0,18.271,3.123" transform="translate(2369.949 901.526)" fill="#1a75bc"/>
  </g>
</svg>
