<svg xmlns="http://www.w3.org/2000/svg" width="44.164" height="44.165" viewBox="0 0 44.164 44.165">
  <g id="Group_2033" data-name="Group 2033" transform="translate(-2117.344 -890.188)">
    <rect id="Rectangle_1753" data-name="Rectangle 1753" width="44.164" height="44.165" rx="5" transform="translate(2117.344 890.188)" fill="#fff"/>
    <path id="Icon_akar-youtube-fill" data-name="Icon akar-youtube-fill" d="M23.631,8.519a2.8,2.8,0,0,0-.77-1.277A3.067,3.067,0,0,0,21.515,6.5C19.626,6,12.061,6,12.061,6a77.049,77.049,0,0,0-9.442.473,3.178,3.178,0,0,0-1.345.764A2.913,2.913,0,0,0,.49,8.518,29.252,29.252,0,0,0,0,14.042,29.2,29.2,0,0,0,.49,19.567a2.843,2.843,0,0,0,.779,1.276,3.113,3.113,0,0,0,1.348.747c1.914.5,9.442.5,9.442.5a77.227,77.227,0,0,0,9.454-.473,3.067,3.067,0,0,0,1.345-.746,2.8,2.8,0,0,0,.769-1.277,28.538,28.538,0,0,0,.5-5.526,26.727,26.727,0,0,0-.5-5.548ZM9.655,17.485V10.6l6.295,3.443L9.655,17.485Z" transform="translate(2127.637 897.917)" fill="#1a75bc"/>
  </g>
</svg>
