<svg id="_65af8a95cee257c23ab03ff8_040-shelter" data-name="65af8a95cee257c23ab03ff8_040-shelter" xmlns="http://www.w3.org/2000/svg" width="52.862" height="54.231" viewBox="0 0 52.862 54.231">
  <path id="Path_465" data-name="Path 465" d="M12.337,13.44a1.136,1.136,0,0,0,.611-.181l.611-.393V26.343a2.425,2.425,0,0,0,2.422,2.423h8.135a1.131,1.131,0,0,0,1.132-1.132V22.661h2.5v4.973a1.13,1.13,0,0,0,1.132,1.132h8.135a2.442,2.442,0,0,0,2.452-2.423V12.889l.588.378a1.133,1.133,0,0,0,.611.181,1.131,1.131,0,0,0,.611-2.082l-5.84-3.758V3.17A1.617,1.617,0,0,0,33.8,1.533h-2.86A1.617,1.617,0,0,0,29.3,3.17V3.7L27.4,2.476a1.639,1.639,0,0,0-1.773,0L11.742,11.365a1.125,1.125,0,0,0-.34,1.562A1.075,1.075,0,0,0,12.337,13.44Zm24.856,12.9a.172.172,0,0,1-.188.159H30V21.529A1.13,1.13,0,0,0,28.871,20.4H24.109a1.13,1.13,0,0,0-1.132,1.132V26.5h-7a.151.151,0,0,1-.158-.159V11.418l10.67-6.837,2.506,1.607a.056.056,0,0,0,.03.015l.046.023a1.646,1.646,0,0,0,.815.219,1.712,1.712,0,0,0,.808-.2,1.638,1.638,0,0,0,.86-1.434V3.789h1.615V7.954a1.068,1.068,0,0,0,.09.437,1.61,1.61,0,0,0,.468.762,1.223,1.223,0,0,0,.211.181l3.252,2.09V26.343Z" transform="translate(-0.711 -1.533)" fill="#fff"/>
  <path id="Path_466" data-name="Path 466" d="M53.906,29.857l-.015-.015c0-.008-.008-.008-.008-.015s-.022-.03-.037-.037-.023-.031-.03-.038l-.015-.015-.015-.015a5.167,5.167,0,0,0-5.607-1.245A4.038,4.038,0,0,0,45.8,27.057h-.015a7.588,7.588,0,0,0-3.652.2,3.964,3.964,0,0,0-2.15-1.177h-.008a.027.027,0,0,1-.023-.008h-.023a7.54,7.54,0,0,0-5.094.8c-.007.007-.015.007-.023.016s-.015.007-.023.015l-7.108,4.369a29.657,29.657,0,0,1-5.78-2.709,14.274,14.274,0,0,0-13.515-.724l-5.508,2.6a1.28,1.28,0,0,0,.55,2.438,1.322,1.322,0,0,0,.551-.121l5.5-2.6a11.682,11.682,0,0,1,11.085.6,32.315,32.315,0,0,0,6.686,3.079,1.356,1.356,0,0,0,.377.121,32.183,32.183,0,0,0,5.954,1.283c.015,0,.037.007.053.007l.181.023a2.154,2.154,0,0,1,1.872,1.811,1.492,1.492,0,0,0,.015.181.744.744,0,0,1,0,.128,2.236,2.236,0,0,1-2,2.075,16.871,16.871,0,0,1-10.987-1.7,1.283,1.283,0,0,0-1.207,2.264A19.5,19.5,0,0,0,30.657,42.3a18.993,18.993,0,0,0,3.517-.325,4.764,4.764,0,0,0,4.082-4.248l10.4-6.626a2.461,2.461,0,1,1,2.573,4.2c-.007,0-.007.007-.015.007s-.007.007-.015.007L32.159,48.238a6.547,6.547,0,0,1-6.5.483l-9.055-4.339a6.509,6.509,0,0,0-5.207-.173L2.949,47.552a1.293,1.293,0,0,0-.725,1.668,1.279,1.279,0,0,0,1.192.815,1.256,1.256,0,0,0,.468-.091L12.336,46.6a3.9,3.9,0,0,1,3.147.105l9.055,4.339a9.127,9.127,0,0,0,9.048-.679l19.03-12.926a.007.007,0,0,0,.007-.008,5.2,5.2,0,0,0,2.294-3.508A5.129,5.129,0,0,0,53.906,29.857ZM36.49,33.69l5.479-3.6c.053-.03.114-.061.166-.09.03-.015.068-.023.1-.038a.321.321,0,0,0,.068-.037,5.044,5.044,0,0,1,3.01-.355h.016a1.43,1.43,0,0,1,.574.241l-8.225,5.237A5.233,5.233,0,0,0,36.49,33.69ZM36.1,29.1a5.021,5.021,0,0,1,3.365-.513h.016c.007,0,.015,0,.015.008a.146.146,0,0,1,.053.015l-6.112,4.014c-.8-.105-1.607-.248-2.4-.423Z" transform="translate(-2.137 2.296)" fill="#fff"/>
</svg>
