<svg xmlns="http://www.w3.org/2000/svg" width="40.623" height="40.624" viewBox="0 0 40.623 40.624">
  <g id="Group_2199" data-name="Group 2199" transform="translate(-188 -759.073)">
    <path id="Icon_awesome-phone-alt" data-name="Icon awesome-phone-alt" d="M18.825,13.693l-4.239-1.817a.908.908,0,0,0-1.06.261l-1.877,2.294A14.028,14.028,0,0,1,4.943,7.725L7.236,5.848A.906.906,0,0,0,7.5,4.788L5.681.549A.914.914,0,0,0,4.64.023L.7.932a.908.908,0,0,0-.7.885A17.559,17.559,0,0,0,17.561,19.378a.908.908,0,0,0,.886-.7l.908-3.936A.919.919,0,0,0,18.825,13.693Z" transform="translate(198.623 770.442)" fill="#8ec63f"/>
    <path id="Rectangle_1716" data-name="Rectangle 1716" d="M5-.5H33.623a5.506,5.506,0,0,1,5.5,5.5V33.624a5.506,5.506,0,0,1-5.5,5.5H5a5.506,5.506,0,0,1-5.5-5.5V5A5.506,5.506,0,0,1,5-.5ZM33.623,38.124a4.505,4.505,0,0,0,4.5-4.5V5a4.505,4.505,0,0,0-4.5-4.5H5A4.505,4.505,0,0,0,.5,5V33.624a4.505,4.505,0,0,0,4.5,4.5Z" transform="translate(189 760.073)" fill="#a5cd37" stroke="#8ec63f" stroke-width="1"/>
  </g>
</svg>
