<svg id="Group_2142" data-name="Group 2142" xmlns="http://www.w3.org/2000/svg" width="14.226" height="17.066" viewBox="0 0 14.226 17.066">
  <path id="Path_4449" data-name="Path 4449" d="M-565.456,312.287c.222.044.445.083.665.134a4.138,4.138,0,0,1,3.006,3.34,3.992,3.992,0,0,1-.587,2.835,4.025,4.025,0,0,1-3.211,1.9,4.124,4.124,0,0,1-4.021-2.415,4.161,4.161,0,0,1,.624-4.34,4.085,4.085,0,0,1,2.284-1.367c.157-.032.315-.057.473-.085Zm2.723,4.1a3.1,3.1,0,0,0-3.117-3.1,3.1,3.1,0,0,0-3.105,3.115,3.1,3.1,0,0,0,3.116,3.106A3.1,3.1,0,0,0-562.733,316.392Z" transform="translate(572.852 -312.287)" fill="#959595"/>
  <path id="Path_4450" data-name="Path 4450" d="M-632.276,518.734h-4.065a3.18,3.18,0,0,1-1.9-.541,2.523,2.523,0,0,1-1.109-1.893,8.869,8.869,0,0,1,.576-4.133,3.481,3.481,0,0,1,1.57-1.877,3.123,3.123,0,0,1,1.553-.371,1.192,1.192,0,0,1,.51.177c.253.138.487.309.733.46a3.793,3.793,0,0,0,4.282-.007c.193-.12.391-.235.572-.372a1.442,1.442,0,0,1,1.154-.232,3.152,3.152,0,0,1,2.381,1.707,7.09,7.09,0,0,1,.79,2.781,13.682,13.682,0,0,1,.066,1.513,2.725,2.725,0,0,1-2.543,2.754c-.193.019-.388.03-.581.03Q-630.285,518.737-632.276,518.734Zm-.019-1v0c1.411,0,2.822.011,4.232,0a1.782,1.782,0,0,0,1.9-1.951c-.005-.438-.022-.878-.071-1.313a6.148,6.148,0,0,0-.637-2.277,2.151,2.151,0,0,0-1.843-1.262.4.4,0,0,0-.217.049c-.252.151-.5.317-.745.472a4.918,4.918,0,0,1-2.25.752,4.859,4.859,0,0,1-3.033-.806c-.22-.14-.438-.283-.66-.421a.291.291,0,0,0-.152-.054,2.044,2.044,0,0,0-1.41.586,3.254,3.254,0,0,0-.71,1.136,8.566,8.566,0,0,0-.492,3.354,1.654,1.654,0,0,0,.856,1.471,2.311,2.311,0,0,0,1.187.268Z" transform="translate(639.394 -501.669)" fill="#959595"/>
</svg>
