<svg id="Group_2143" data-name="Group 2143" xmlns="http://www.w3.org/2000/svg" width="15.424" height="15.423" viewBox="0 0 15.424 15.423">
  <path id="Path_4451" data-name="Path 4451" d="M-1132.13,369.524v-8.886a.619.619,0,0,0,.028-.1,2.972,2.972,0,0,1,2.706-2.555c.268-.017.537,0,.819,0,0-.169.009-.3,0-.437a.67.67,0,0,1,.484-.763h.241a.683.683,0,0,1,.483.782c-.01.128,0,.258,0,.395h5.906c0-.137.009-.266,0-.395a.684.684,0,0,1,.482-.782h.241a.671.671,0,0,1,.484.765c-.011.133,0,.268,0,.42.179,0,.343,0,.508,0a2.981,2.981,0,0,1,3.044,2.959q.006,4.163,0,8.326a2.963,2.963,0,0,1-2.945,2.947q-4.765.013-9.53,0a2.966,2.966,0,0,1-2.859-2.282C-1132.077,369.788-1132.1,369.655-1132.13,369.524Zm1.2-6.791v.155q0,3.154,0,6.309a1.769,1.769,0,0,0,1.791,1.8q4.713.007,9.426,0a1.77,1.77,0,0,0,1.795-1.811q0-3.147,0-6.294c0-.053,0-.105-.007-.159Zm2.349-3.545a1.913,1.913,0,0,0-2.326,2.326h12.974a1.913,1.913,0,0,0-2.333-2.319c0,.384,0,.77,0,1.155a.592.592,0,0,1-.59.6.6.6,0,0,1-.612-.592c0-.16,0-.321,0-.482v-.69h-5.894a.233.233,0,0,0-.01.041c0,.356,0,.713,0,1.069a.6.6,0,0,1-.6.654.6.6,0,0,1-.607-.656C-1128.577,359.926-1128.576,359.56-1128.576,359.188Z" transform="translate(1132.13 -356.783)" fill="#959595"/>
  <path id="Path_4452" data-name="Path 4452" d="M-1057.384,636.689c.2,0,.391,0,.586,0a.6.6,0,0,1,.594.6.6.6,0,0,1-.585.605q-.609.013-1.218,0a.6.6,0,0,1-.587-.6.6.6,0,0,1,.593-.6C-1057.795,636.685-1057.589,636.689-1057.384,636.689Z" transform="translate(1061.552 -625.425)" fill="#959595"/>
  <path id="Path_4453" data-name="Path 4453" d="M-880.623,637.881c-.19,0-.381,0-.571,0a.606.606,0,0,1-.616-.606.6.6,0,0,1,.622-.6q.571,0,1.143,0a.6.6,0,0,1,.625.6.61.61,0,0,1-.631.607C-880.242,637.883-880.433,637.881-880.623,637.881Z" transform="translate(891.883 -625.412)" fill="#959595"/>
  <path id="Path_4454" data-name="Path 4454" d="M-880.612,549.568c-.2,0-.391,0-.586,0a.605.605,0,0,1-.613-.608.6.6,0,0,1,.61-.595q.586-.005,1.173,0a.6.6,0,0,1,.607.6.605.605,0,0,1-.6.6C-880.22,549.572-880.416,549.568-880.612,549.568Z" transform="translate(891.883 -540.653)" fill="#959595"/>
  <path id="Path_4455" data-name="Path 4455" d="M-1057.4,548.387c.2,0,.391,0,.586,0a.6.6,0,0,1,.6.6.6.6,0,0,1-.6.6c-.391.005-.782,0-1.173,0a.606.606,0,0,1-.613-.609.607.607,0,0,1,.612-.594C-1057.786,548.385-1057.591,548.387-1057.4,548.387Z" transform="translate(1061.553 -540.676)" fill="#959595"/>
  <path id="Path_4456" data-name="Path 4456" d="M-969.114,549.561c-.2,0-.391,0-.586,0a.605.605,0,0,1-.6-.6.6.6,0,0,1,.606-.6c.4,0,.792,0,1.188,0a.6.6,0,0,1,.595.593.6.6,0,0,1-.6.608C-968.713,549.566-968.914,549.561-969.114,549.561Z" transform="translate(976.817 -540.646)" fill="#959595"/>
  <path id="Path_4457" data-name="Path 4457" d="M-969.108,636.69c.2,0,.391,0,.586,0a.6.6,0,0,1,.6.6.6.6,0,0,1-.6.6c-.4.005-.792.006-1.188,0a.6.6,0,0,1-.6-.609.6.6,0,0,1,.6-.592C-969.509,636.687-969.308,636.691-969.108,636.69Z" transform="translate(976.818 -625.426)" fill="#959595"/>
</svg>
